<svg id="google" xmlns="http://www.w3.org/2000/svg" width="12.612" height="12.443" viewBox="0 0 12.612 12.443">
  <g id="Group_13" data-name="Group 13" transform="translate(0 0)">
    <path id="Path_28" data-name="Path 28" d="M5.711,21.3a.511.511,0,0,0,.078,0c.016,0,.029-.01.016-.01A.255.255,0,0,0,5.711,21.3Z" transform="translate(1.577 -8.9)" fill="#c84097" fill-rule="evenodd"/>
    <path id="Path_29" data-name="Path 29" d="M8.159,18.579c.006-.024.008-.059,0-.063l-.01.012c-.006.014-.012.035-.02.057-.008.039-.008.051,0,.055S8.152,18.616,8.159,18.579Z" transform="translate(3.891 -11.558)" fill="#c84097" fill-rule="evenodd"/>
    <path id="Path_30" data-name="Path 30" d="M14.249,20.826c-.008-.155-.018-.309-.037-.462-.022-.088-.033-.2-.053-.3-.012-.072-.033-.131-.045-.211l-.014-.057-.018-.061-.02-.061-.02-.067-.022-.057c-.014-.063-.049-.117-.059-.18,0,0,0,.012,0,0h0l0-.012-.008-.01c-.006,0-.012,0,0,.037s.02.061.023.1a.853.853,0,0,0,.025.112.39.39,0,0,1,.018.088c.008.031.016.061.022.088l.018.08-.006.014c-.016.018-.02.018-.006.094l.008.049a1.07,1.07,0,0,1,0,.114c.008.086,0,.137-.023.139a.116.116,0,0,0-.008-.033.3.3,0,0,1-.023-.084c-.012-.043-.02-.082-.029-.127l-.016-.069-.018-.07c-.035-.139-.072-.3-.125-.446l-.039-.1a.65.65,0,0,0-.045-.1l-.012-.033L13.7,19.16l-.025-.069c-.018-.045-.037-.086-.057-.125-.057-.1-.108-.231-.166-.325a.325.325,0,0,0-.043-.061.244.244,0,0,1-.041-.047c-.014-.02-.025-.047-.041-.072a.261.261,0,0,0-.067-.082c-.055-.072-.1-.141-.147-.194-.006-.012-.031-.041-.037-.053a.407.407,0,0,0-.047-.067c-.018-.018-.039-.037-.059-.061a.137.137,0,0,1-.025-.031l-.008-.006h0l-.016-.018c-.033-.037-.061-.074-.094-.11l-.01-.008,0,0c-.02-.018-.037-.045-.055-.061l-.072-.082a.376.376,0,0,0-.074-.057.305.305,0,0,1-.067-.059l-.029-.035-.027-.037-.018-.02a.094.094,0,0,1,.023.031.224.224,0,0,1-.063-.043.851.851,0,0,0-.07-.061l-.02-.016-.025-.022c-.023-.014-.043-.043-.065-.057l-.016-.014c-.119-.082-.243-.172-.376-.264l-.01-.006A.455.455,0,0,1,11.8,17l-.047-.033a.671.671,0,0,1-.082-.045l-.078-.049-.041-.027a.139.139,0,0,0-.041-.022.641.641,0,0,0-.065-.035.4.4,0,0,1-.125-.057l-.033-.012c-.031-.02-.059-.031-.092-.051-.014,0-.033-.016-.045-.018a.382.382,0,0,1-.051-.023v0l-.023-.012-.02-.006-.018-.014c-.1-.035-.2-.072-.305-.11-.067-.027-.092-.031-.106-.016l-.061-.016-.092-.025c-.031-.006-.061-.014-.1-.023l-.023,0c0,.012-.006.014.029.029h0c-.121-.033-.241-.051-.364-.072l-.045-.008v0l-.051-.01-.053-.006c-.02,0-.039,0-.061-.006l-.061-.006-.063-.008a.326.326,0,0,0-.061,0,2.946,2.946,0,0,0-.405-.014,2.832,2.832,0,0,0-.351.022c-.022,0-.045,0-.078.006l-.049,0-.049.008a.565.565,0,0,0-.088.012.46.46,0,0,1-.078.018l-.078.016c-.025,0-.047.006-.07.012a.586.586,0,0,0-.063.016c-.041.008-.082.022-.125.031a.267.267,0,0,0-.072.022.524.524,0,0,1-.059.023l-.065.018c-.043.012-.088.025-.129.039-.1.039-.21.076-.317.121s-.211.1-.313.151a3.254,3.254,0,0,0-.4.245.548.548,0,0,1-.063.039l-.02.012-.014.016a.467.467,0,0,0-.1.1c-.016.029-.016.029.065,0-.049.043-.1.078-.149.117a1.981,1.981,0,0,0-.163.149.409.409,0,0,0-.063.049.445.445,0,0,0-.051.055.347.347,0,0,1-.029.035c-.025.018-.035.035-.031.041l0,0c.016-.014.033-.023.049-.037a.219.219,0,0,0,.039-.033l.01-.006.008,0,.02-.01.029-.018,0,0-.012.022-.02.027,0,.008,0,0a.178.178,0,0,0-.041.029.122.122,0,0,1-.039.024.479.479,0,0,0-.168.116l-.014.014-.025.029-.022.029-.043.053-.041.055-.02.029-.022.027-.043.043a.456.456,0,0,0-.033.051l-.027.049a.388.388,0,0,1-.037.055.18.18,0,0,1-.025.035.242.242,0,0,0-.041.069.341.341,0,0,1-.051.088.17.17,0,0,1-.016.027,1.223,1.223,0,0,0-.09.17l-.055.108-.023.051-.022.049c-.041.106-.086.2-.125.315-.031.084-.067.186-.09.27-.025.106-.059.21-.076.313a.578.578,0,0,1-.014.067l0,.027,0,.027-.008.061-.008.063-.012.063a.094.094,0,0,1-.006.049.338.338,0,0,0-.01.047c-.006.116-.029.249-.043.37-.01.145-.029.266-.049.4a.434.434,0,0,1-.037.164l0,.031H4.944a.46.46,0,0,1-.039.1.279.279,0,0,1-.047.057c-.018.023-.039.023-.057.037s-.039.014-.057.047a.191.191,0,0,0-.01.055.542.542,0,0,0,.01.08l.018.069.008.033,0,.039-.006-.02,0-.012v.008l0,0,.006.02h0c.031.108.063.206.094.313s.074.211.116.305a.8.8,0,0,0,.047.1c.016.035.033.065.051.1l.031.065.027.063c.057.117.117.223.184.335.025.043.051.086.084.137.059.08.112.176.18.253l.023.033c.069.11.166.211.245.315.02.024.039.047.059.067a.736.736,0,0,0,.063.055c.014.014.037.031.051.047l.033.031.031.029c.022.02.041.043.061.065s.025.027.037.043l.043.037.043.035.043.035a.137.137,0,0,1,.031.02l.033.022a.591.591,0,0,1,.063.053l.047.035.09.061.09.065c.061.039.072.07.049.074s-.029.01-.053.006L6.657,24.4,6.651,24.4l0,0,.008,0,.018.014,0,0-.008.012c0,.022.018.051,0,.059a.119.119,0,0,1,.041.049c0,.016.027.035.065.057s.051.031.074.043a.579.579,0,0,0,.072.031l.045.022.045.027.022.016.025.014.049.023c.035.014.07.025.1.039.106.035.225.072.343.11h.01l.029.01.027.01.029.014a.253.253,0,0,0,.1.033c.059.012.131.031.192.037a.861.861,0,0,1,.086.014l.094.018.076.012.037,0,.037,0,.072.006c.025,0,.049,0,.072,0a2.078,2.078,0,0,0,.366.02,3.178,3.178,0,0,0,.474-.037l.031-.008,0,0c.061-.012.129-.018.18-.033A.509.509,0,0,1,9.536,25h.012c.088-.02.17-.049.268-.069l.02,0,.027-.012c.02,0,.039-.008.059-.014l.037-.012a.261.261,0,0,0,.039,0l.035-.012a.754.754,0,0,1,.07-.027.036.036,0,0,1,.025-.008l.029-.008c.008,0,.01,0,.02,0s.061-.01.092-.01l-.053.014-.025.008H10.2l.014-.008a.162.162,0,0,0,.053-.014l.043-.016.041-.016c.027-.012.055-.022.082-.035a.774.774,0,0,1,.106-.055l.051-.027.049-.025a.594.594,0,0,1,.092-.049c.051-.025.084-.053.137-.08l.014-.014c.131-.088.268-.18.4-.276a.437.437,0,0,0,.07-.039c.018-.008.041-.025.057-.022-.016.018,0,.012.008.014l0,.01.008-.008-.006,0-.008-.014.006,0c.006.01.02.01.041,0l.033-.018.037-.024a.194.194,0,0,1,.053-.027.108.108,0,0,1,.084-.029l.025-.012a.043.043,0,0,1,.047.033c0,.031.012.033.069-.012l.018-.01.008-.008c.02-.012.041-.047.057-.047s.025.012.01.039l-.022.037-.059.074a.845.845,0,0,1-.059.067.074.074,0,0,0-.023.033.555.555,0,0,1-.067.069l-.043.051a.912.912,0,0,0-.116.112.233.233,0,0,1-.07.067,1.291,1.291,0,0,1-.09.094.714.714,0,0,0-.086.086l-.02.012c0,.014-.008.029.006.031.033.01.037.039.041.067s.047.012.108-.031c.018-.01.033-.022.051-.033l.047-.035a.81.81,0,0,0,.09-.076l.031-.025a.205.205,0,0,0,.033-.027.815.815,0,0,0,.07-.057.746.746,0,0,0,.086-.09l.051-.061a.564.564,0,0,1,.069-.072l.008-.006a.565.565,0,0,0,.045-.067c.016-.012.031-.029.057-.049l.014-.018.02-.014.01-.006.006-.006.008-.006a1.154,1.154,0,0,0,.108-.1l.035-.035.033-.035c.022-.022.043-.043.065-.061l.016-.016c.012,0,.033-.029.043-.037a.478.478,0,0,0,.072-.069c.022-.027.043-.055.065-.088s.037-.057.057-.088.039-.059.057-.088a.654.654,0,0,1,.072-.1l.074-.088a1.1,1.1,0,0,0,.17-.119c.008-.01.01-.006.014-.006a.457.457,0,0,0,.063-.08l.022-.025.023-.029c.016-.018.031-.037.051-.063a.3.3,0,0,1,.072-.084c.018-.014.033-.014.043,0,0,0,.006,0,.014-.008s.006.018.018.01a.021.021,0,0,0,.012.02c.006.053.053.025.08.037l.029.016a.024.024,0,0,1-.01.02l0,0c.016.01.035.006.041.037s.037,0,.055.01c.018-.018.016.008.037-.01l0,0,.008-.012a.126.126,0,0,1,.061-.039c.027-.016.027.014.031.043,0,.012,0,.025,0,.027s.016.029.012.059a.628.628,0,0,1-.014.1c0,.025,0,.055.02.051s0,.025,0,.041l-.012.024a.172.172,0,0,0,.047-.041.54.54,0,0,0,.057-.092c.012-.023.027-.061.045-.1a.369.369,0,0,0,.025-.061.125.125,0,0,0,.01-.047c.029-.072.065-.125.088-.188.027-.043.016-.006.01.02a.79.79,0,0,0,.02-.092l-.008.012a.075.075,0,0,1,.008-.037v.01l.01-.041.008-.045a.588.588,0,0,1,.016-.076l.012-.035c0-.025.012-.065.014-.092a.163.163,0,0,0,0-.076.509.509,0,0,1,.037-.176.439.439,0,0,1,.039-.08.126.126,0,0,0,.008-.037,1.034,1.034,0,0,0,.027-.135c.006-.043.006-.084.008-.129,0-.012,0-.014,0-.041l-.01,0,0,.027h0l.006-.027H14.1l0-.012h0l0-.025.006-.039a.236.236,0,0,0,0-.037l.006-.035.012-.092a.059.059,0,0,1,.01-.031l.008-.074c0-.027,0-.051.006-.076s0-.049,0-.07l-.006-.07,0-.025,0-.039.008-.025,0-.035.01-.014c0-.022.006-.039.008-.053a.11.11,0,0,1,.01-.035c.008-.02.016-.025.025-.025l0-.012.006-.012c.018-.051.039-.051.059-.051h.027a.579.579,0,0,0,.072.168.158.158,0,0,1,.018.043c.012-.014.014.037.02.053l.014.027a.093.093,0,0,0,.008.039l0,.041c.01.053.02.106.027.163a.372.372,0,0,0,0,.082.239.239,0,0,0,.012.053.264.264,0,0,1,.016.047l.012.053c.006-.014.006-.014.01-.012a.77.77,0,0,1,.018.141c0,.055.006.11.008.164l0,.051-.01.061a.517.517,0,0,1-.01.125.588.588,0,0,1-.016.112c-.008.039-.018.08-.025.121l-.008.031-.01.035a.5.5,0,0,0-.016.084.172.172,0,0,1-.023.047.259.259,0,0,0-.027.094l-.008.041h0v.016l0,0c.01.02.039-.018.053-.012.033-.033.018.037.024.069s-.006.074.006.08,0,.025,0,.057l-.006.014c.01-.014.012-.012.016-.01l.014-.041,0-.014.006-.014c-.01,0-.008-.018,0-.059l.006-.012s0,0,0-.014l0,0h0s.01-.029.01-.043l.018-.055a1.07,1.07,0,0,1,.035-.149c.014-.047.018-.043.02-.027a.418.418,0,0,1-.025.157l0,.043c0,.029-.01.061-.018.1a.9.9,0,0,1-.031.114l0,.049c.01,0,0,.045-.022.084l0,.016-.008.012a.92.92,0,0,0-.023.1l0,.018a1.134,1.134,0,0,0-.047.108.248.248,0,0,0-.02.082.515.515,0,0,1-.033.082l-.01.012-.016.041a1.065,1.065,0,0,1-.084.188,1.022,1.022,0,0,0-.065.147,1,1,0,0,1-.049.1.488.488,0,0,1-.037.078.287.287,0,0,1-.033.07c-.014.025-.033.049-.049.072a.444.444,0,0,0-.055.086.359.359,0,0,1-.055.084.832.832,0,0,0-.049.076c-.018.023-.031.051-.049.074a.109.109,0,0,0-.027.051c.006,0,0,.02,0,.037a2.676,2.676,0,0,1-.28.325.816.816,0,0,0-.088.114c-.035.051-.084.084-.121.131l-.061.086c-.039.043-.088.08-.1.112l-.022.02-.07.067c-.023.022-.045.045-.069.067l-.063.065-.033.031-.031.031a.642.642,0,0,0-.067.061c-.022.02-.045.039-.067.061-.043.041-.088.08-.135.119a.562.562,0,0,0-.092.08.147.147,0,0,1-.035.025c-.025.016-.041.02-.043.016l-.008.012v0l-.012.008,0,0c0,.006.02,0-.006.023l-.023.014c-.014.012-.039.025-.049.035-.063.045-.123.09-.186.133-.053.027-.1.067-.139.088a1.579,1.579,0,0,1-.159.086.313.313,0,0,0-.094.053l-.059.033-.049.025-.082.037c-.016.006-.014.01-.027.016s.008.014-.022.029l-.023.016s-.012.014-.023.022l-.041.02-.014.008-.039.023-.029.012s-.029.012-.043.022l-.006,0-.006,0c-.027.018-.059.023-.084.039-.155.072-.343.141-.5.2a.687.687,0,0,1-.106.033.406.406,0,0,1-.086.029.224.224,0,0,1-.086.033c-.047.014-.106.031-.151.043a.841.841,0,0,1-.1.025c-.033.008-.067.018-.1.023a1.234,1.234,0,0,0-.123.031l-.029.01a.2.2,0,0,1-.047,0,.043.043,0,0,1,.029-.01.7.7,0,0,0,.078-.023l.014,0,.016,0,.027-.012c.016-.008.033-.012.053-.02l.069-.012-.018,0-.018,0c-.014.006-.014.014-.041.014s-.063.012-.092.018-.061.014-.09.025-.061.012-.074.014v0l-.016.008a.212.212,0,0,0-.074.016c-.016.01-.031.018-.031.025a.367.367,0,0,0-.08,0,.557.557,0,0,0-.08.008.393.393,0,0,0-.082.01c-.027,0-.055.006-.082.01s-.061.012-.094.016-.067.008-.108.01-.092,0-.131.008a.184.184,0,0,0-.084.027.2.2,0,0,1-.063,0c-.031,0-.063,0-.063-.008l-.031-.008a1.275,1.275,0,0,1-.176.022l-.043,0a.355.355,0,0,1-.11,0s-.031-.008-.047-.008a.189.189,0,0,0-.033,0l.016,0c-.033,0-.018.008-.033.01l-.029,0v0l-.016,0-.033,0H8.276l-.049-.008a.425.425,0,0,1-.049,0,.57.57,0,0,0-.063.006c-.127-.008-.255-.023-.362-.031l0,.008a1.833,1.833,0,0,1-.27-.043l-.016,0-.049-.006-.078-.016-.076-.014-.145-.027-.1-.023a.471.471,0,0,0-.09-.02c-.029-.01-.027-.014-.061-.023l-.114-.033c-.018-.008-.039-.012-.057-.02s-.039-.012-.061-.016a.248.248,0,0,1-.045-.016l-.055-.02-.057-.022c-.037-.012-.078-.023-.117-.039S6.31,27.01,6.285,27l-.078-.041a.357.357,0,0,0-.078-.031l-.037-.008-.043-.014-.1-.043,0,.006-.008,0-.008,0-.045-.025c-.049-.023-.1-.045-.153-.069l-.078-.037-.074-.041a.18.18,0,0,0-.059-.023c-.041-.025-.1-.063-.117-.059-.043-.023-.084-.051-.125-.076-.014-.006-.035-.02-.057-.031s-.041-.027-.055-.035l-.078-.057a.2.2,0,0,0-.074-.037.4.4,0,0,1-.082-.055l-.213-.151c-.159-.117-.3-.223-.452-.358l-.051-.037c-.043-.039-.084-.076-.125-.116s-.08-.076-.117-.11l-.116-.116a1.347,1.347,0,0,1-.1-.108c-.09-.094-.168-.182-.253-.282-.108-.131-.221-.276-.323-.425-.041-.063-.082-.121-.119-.18L3,24.347l-.059-.092a1.488,1.488,0,0,1-.07-.135.253.253,0,0,1-.063-.1l-.047-.088-.043-.074c-.023-.045-.047-.088-.069-.133s-.043-.092-.063-.137a.364.364,0,0,1-.025-.045.2.2,0,0,1-.037-.059.369.369,0,0,1-.031-.076c-.023-.049-.045-.1-.065-.149s-.043-.1-.061-.149a.25.25,0,0,1-.027-.078.185.185,0,0,1-.033-.061.7.7,0,0,1-.065-.161c-.014-.055-.031-.112-.047-.168s-.033-.106-.049-.157a2.026,2.026,0,0,0-.041-.211l-.023-.094-.023-.092a.834.834,0,0,1-.025-.168c0-.041-.01-.092-.014-.141s-.014-.1-.022-.141a1.053,1.053,0,0,1,0-.153c0-.043.006-.08.008-.121s0-.051,0-.086.008-.069.016-.069a.484.484,0,0,1,0-.131c.022-.155.02-.321.033-.505a4.634,4.634,0,0,1,.051-.568c.008-.059.012-.11.016-.159l.01-.145a.372.372,0,0,1,.006-.049l.016-.116.018-.11c.012-.076.025-.149.039-.227.008-.041.02-.088.031-.135s.029-.094.047-.141c.018-.067.033-.135.049-.182s.027-.1.043-.149c.008-.025.016-.051.025-.076s.02-.055.033-.08l.029-.072L2.5,18.28a.509.509,0,0,1,.033-.076c.01-.02.02-.029.027-.027l.006-.012a.646.646,0,0,0,.022-.067l.022-.031.057-.108.029-.053.031-.051.063-.1c.023-.033.045-.069.069-.106a.752.752,0,0,1,.07-.092.919.919,0,0,1,.065-.078c.035-.041.059-.069.053-.029.006,0,0,.023,0,.037s.02-.006.039-.037l.027.018a.477.477,0,0,0-.012.051L3.1,17.5l.008-.016.012-.012.012-.014c.037-.045.072-.09.106-.139s.072-.1.112-.166c.023-.025.045-.069.07-.094a.284.284,0,0,0,.035-.033.321.321,0,0,1,.067-.074l0,0c.01-.016.014-.014.014-.014,0,.02.014.012-.012.055l-.022.049-.027.053c-.018.037-.041.074-.067.117s-.049.1-.025.1l0,0c0,.018-.059.09-.029.076s-.012.047-.018.065c-.02.043-.037.088-.059.133s-.043.1-.067.145c-.012.02-.023.043-.033.063l-.027.065c-.018.041-.033.082-.047.117l-.01.031,0,0,0,.016c-.006.018,0,.018,0,.018s.006,0,0,.02a1.02,1.02,0,0,1-.027.145c-.01.045.025-.008.031,0l-.008.014v.018c-.012.027-.02.059-.029.086a.208.208,0,0,1-.018.049l-.014.023-.016.031a.1.1,0,0,1-.035.033h0c.006.016.016,0,.033-.033a.332.332,0,0,0,.029-.055l-.01.043-.006.016,0,.006,0,.008,0-.008,0-.006-.008.029,0,.016c0,.047.006.053.041,0,.012-.012.022-.025.033-.037.02-.051.037-.1.057-.141s.041-.092.067-.141c.016-.025.031-.055.045-.082l.022-.053.027-.053c.018-.033.035-.069.053-.1.037-.065.072-.131.108-.192a.777.777,0,0,0,.051-.094.343.343,0,0,1,.031-.053,2.03,2.03,0,0,1,.2-.278c.022-.022.067-.088.057-.053l.018-.029c.025-.031.053-.065.078-.094s.051-.057.076-.084l.153-.143.018-.006a.537.537,0,0,0,.061-.057.244.244,0,0,1,.057-.045.553.553,0,0,0,.057-.037l.059-.043a.226.226,0,0,1,.1-.049c.053-.037.11-.082.164-.116.047-.051.1-.1.153-.147.027-.022.055-.047.08-.069l.039-.035.037-.035c.022-.018.043-.037.069-.055l.108-.082c.035-.029.07-.057.1-.082a.64.64,0,0,1,.072-.055l.07-.055c.049-.033.1-.07.147-.1l.018,0,.025-.016c.023-.018.063-.045.1-.069a.131.131,0,0,1,.055-.02c-.006.01,0,.02.014.02.043-.02.074-.022.127-.049s.061-.012.067,0l.014-.006c.037,0,.043.02.029.047a.679.679,0,0,1-.09.108c-.012.033-.047.084,0,.084a.46.46,0,0,1,.061-.035l.023-.016c.025-.018.047-.031.061-.039l.012-.012a.232.232,0,0,0,.059-.033c.049-.033.1-.061.157-.092L6.34,15.6l.08-.047a5.719,5.719,0,0,1,.6-.276c.082-.033.174-.069.286-.1l.027-.012c.168-.039.335-.084.492-.123a.182.182,0,0,1,.057-.01c.037-.008.072-.014.108-.02S8.065,15,8.1,15s.072-.012.11-.016.07,0,.106-.008a.213.213,0,0,1,.061-.006.292.292,0,0,1,.143,0c.016.006.016.01.027.018a.225.225,0,0,1,.094.016c.041,0,.08,0,.116.006a.671.671,0,0,1,.1.012.942.942,0,0,0,.127.016.336.336,0,0,1,.114.031.247.247,0,0,0,.1.037l.072.008c.022,0,.045,0,.069,0,.045.006.088.01.137.018a.713.713,0,0,1,.1.014.249.249,0,0,1,.067.025.432.432,0,0,0,.108.035l.092.016c.031.006.061.012.092.02.063.012.123.029.184.041l.025.02.025.008,0,.008.014,0a.217.217,0,0,1,.069.022l.037.018c.053.016.035.025.063.039.045.01.088.023.131.035s.086.022.135.037l0,0h.022a3.138,3.138,0,0,1,.593.206.7.7,0,0,1,.123.055c.035.012.063.023.092.035s.057.027.088.045l.282.141c.037.023.074.047.116.069s.08.051.125.076c.09.063.2.127.288.188l.065.047a.512.512,0,0,1,.063.045c.041.031.078.063.117.1l.069.061a.4.4,0,0,0,.067.051l.022.02c.041.039.078.072.116.112l.057.057.055.057,0,0a1.146,1.146,0,0,1,.116.139.546.546,0,0,1,.023.067l.008.014.016.025a.371.371,0,0,1,.059.092c.029.033.055.063.08.094l.016.025c.033.041.076.1.108.139a.483.483,0,0,0,.039.078c.02.027.041.057.061.088v.016l.016.022.008.01s-.006-.012,0,0c.023.035.049.072.074.108a1.124,1.124,0,0,1,.07.108l.014.024.014.025,0,.012c.027.047.059.1.086.145.014.027.029.051.043.076l.037.074a2.553,2.553,0,0,1,.227.533.13.13,0,0,1,0,.061.981.981,0,0,0,.035.108.791.791,0,0,1,.035.11c.014.051.029.1.041.145s.02.088.025.127.018.078.023.114a.277.277,0,0,1,0,.088c-.01,0-.016-.012-.025-.049s-.029-.09-.037-.127-.027-.09-.039-.127l-.012-.037c-.012-.029-.022-.061-.033-.092s-.023-.063-.033-.092c-.039-.072-.043-.069-.053-.039,0,.014,0,.016-.01.018-.012.02-.014.037.008.108,0,.014.012.041.018.067.057.172.106.349.149.525l.014.057.012.055a.99.99,0,0,0,.023.1c.008.027.01.043.014.053a1.472,1.472,0,0,1,.031.166c.006.025.01.053.014.082l.012.082a.538.538,0,0,1,.01.182.291.291,0,0,0,0,.076l.006.088,0,.051,0,.049a.62.62,0,0,1,0,.086.79.79,0,0,1-.016.078l-.008.014c-.008.014-.016.014-.022.027v.012C14.261,20.942,14.255,20.914,14.249,20.826ZM5.8,15.705s0,.008.018,0l0,0,.016-.01-.014.006S5.823,15.7,5.8,15.705Zm-2.5,1.67.02-.029,0,0,.008-.012-.01.008Zm-.511.9.01-.031C2.8,18.265,2.8,18.267,2.8,18.28Zm.174.161.012-.031Zm11.377,2.837c0,.027,0,.027.008.027a.35.35,0,0,1-.012-.08Zm-.063.035,0-.025,0,.012S14.286,21.3,14.284,21.314Zm-.114.605,0-.014,0,.014Zm.057.29,0-.01-.006.01Zm.172.241,0-.012,0,0Zm-.384.121,0-.014,0-.018.01-.057v0l0-.006,0-.02,0,.02,0,.008a.133.133,0,0,0-.01.057Zm.446.656.006-.014-.008.012S14.468,23.213,14.463,23.227Zm-.059.023,0-.014-.008.012Zm-.2.176.006-.014s0,0,0-.014Zm-.832-.227s0,0,.01-.008c-.008.008,0,0-.008,0Zm.807.4-.01.012s0,0,0,.016Zm-.376-.163c.016-.022.022-.02.033-.029C13.834,23.405,13.828,23.405,13.8,23.438Zm.317.176,0,0a.273.273,0,0,0-.029.059l.031-.063a.739.739,0,0,0,.051-.08.207.207,0,0,0-.025.035Zm-.813-.3h0s-.008,0-.006-.014l0,0h0l0-.01,0,.01,0,0C13.3,23.321,13.3,23.325,13.309,23.317Zm.272.282a.478.478,0,0,0,.057-.084.408.408,0,0,0,.027-.059l.025-.063a.437.437,0,0,0-.033.069A.772.772,0,0,1,13.581,23.6Zm-.621-.27.01-.008S12.966,23.319,12.961,23.329Zm.159.151c.008-.01.01-.01.012-.022l-.008,0Zm.145.178.008-.012c-.008.012,0,0,0,0Zm.36.439.01-.01h0Zm-.764-.5,0-.01-.006.01Zm-.157.029.008-.01-.012.008Zm.967.862.025-.035c-.01.014,0,0-.008,0Zm-.186.108-.018.022c.012-.008.023-.018.01.008l.01-.01Zm-.215-.121,0,0,.006-.006,0-.006C13.272,24.48,13.272,24.48,13.27,24.478Zm-.785-.64.006-.006Zm.084.206c.006,0,.023-.008.029-.022L12.62,24c-.039.041-.053.043-.061.037S12.557,24.049,12.569,24.043Zm.213.253.008-.01-.01.008Zm.341.39,0-.016.02-.031v0l.025-.031c-.01.008-.029.025-.025.031l-.02.033v0C13.107,24.692,13.119,24.682,13.123,24.686Zm.155.161.016-.02a.867.867,0,0,1,.074-.09.6.6,0,0,0-.072.088l0,0Zm.168.194.01-.01,0,0Zm-.037.043.01-.012.008-.01-.01.008S13.419,25.072,13.409,25.083Zm-.384-.341.008-.008-.012.006Zm-.172.664c-.014.01-.023.016-.027.014l-.008.012Zm-.049-.055-.029.031.012-.012Zm-.29-.621.01-.01s-.006,0,0-.014Zm.257.374c.027-.033.055-.067.086-.1l.037-.039-.037.039,0,0-.029.031A.813.813,0,0,0,12.771,25.1Zm-.159-.133.012-.01-.014.008Zm.335.415.008-.012-.01.008C12.957,25.377,12.947,25.387,12.947,25.387Zm-.633-.617.012-.008s-.012.008,0,0Zm-.362-.3a.233.233,0,0,0,.035-.029c-.02.016-.023.01-.035.014Zm.45.517c-.01.008,0,0,0,0s.031-.025.047-.043Zm.245.333a.321.321,0,0,0,.078-.08l.008-.012A.88.88,0,0,1,12.647,25.32Zm-.055.108.008-.012Zm-.012.482.012-.008.01-.012Zm-.864-.725c.027-.01.031,0,.033,0s0-.018-.008-.012Zm.305.544.014,0c.012-.006,0,0,.008-.01Zm.268.423.01-.008.045-.031.02-.016-.014.01-.006.006-.008,0c-.018.012-.027.02-.037.027Zm-.971-1.661c.01-.008.012,0,.023-.008-.014,0-.016,0-.01-.012-.01.006-.008.008-.008.008Zm-.084,0,.01-.008,0,0Zm.654,1.226-.025.01h.014Zm-.3-.493-.008,0,0,0,.014,0Zm-.025-.09-.01.008s0,0,.012,0Zm-.2-.186a.131.131,0,0,0,.049-.033c.012-.008,0,0,.008-.01a.3.3,0,0,1-.057.041ZM12,26.078a.42.42,0,0,1,.037-.025c-.014.008-.016.006-.018,0Zm-.125-.129.014-.008.01-.012C11.889,25.937,11.891,25.941,11.878,25.949Zm.131.345.012-.008.012-.008-.012.006v0ZM11.151,25l-.018.014h.014Zm.282.4-.01.008,0,0c0,.012-.006.022,0,.023l.012,0,0,0h-.01v-.023Zm-.439-.73.012,0,.016-.018Zm.055.143v0c0-.008,0-.018.008-.031-.008.008-.008.01-.008.01C11.036,24.813,11.038,24.813,11.049,24.813Zm-.092-.1c.012-.006.02-.016.029-.016h-.01C10.965,24.7,10.967,24.705,10.957,24.713Zm.423.877-.045.029.012-.006a.053.053,0,0,0,.033-.022v0l.023-.018Zm-.576-1h.012c-.014.018.006.014.02.018,0-.012,0-.02-.02-.018v0l0,0Zm.143.358s.012,0,.031-.012.006-.01,0-.008S10.957,24.942,10.947,24.946Zm-.016.041.016-.012c0-.006-.012-.006-.022,0S10.94,24.978,10.932,24.987Zm.378.726-.01.006,0,0C11.31,25.716,11.322,25.712,11.31,25.714Zm.327.75c.037-.022.072-.039.1-.053l-.078.039Zm-.548-1.095.014,0,0-.008Zm-.264-.507.02-.008c-.01,0-.012,0-.012,0Zm-.127.027.02-.008,0,0Zm.28.65.012-.016c.008-.008.027-.025.014-.025s-.014,0-.014,0S10.993,25.52,10.977,25.54Zm-.027.02.01-.008h0C10.947,25.557,10.949,25.559,10.949,25.559Zm.069.29.041-.023.027-.012-.027.012-.008,0C11.04,25.831,11.03,25.843,11.018,25.849Zm-.106-.09.012-.006.033-.02.022-.012-.022.01v0Zm-.258-.556,0,0h0l0,0Zm.313,1.525-.031.008h.016S10.951,26.734,10.967,26.728Zm-.364-.9a.547.547,0,0,1,.069-.029s0,0-.014,0A.229.229,0,0,0,10.6,25.825Zm-.074-.125h.008l0,0Zm-.074-.135h.012l.012,0Zm-.057.018.014.006.01-.006C10.4,25.588,10.409,25.583,10.4,25.583Zm-.274-.343.01,0v0S10.133,25.236,10.123,25.24Zm.437,1.649.045-.012c-.016,0-.029,0-.031,0Zm-.188-.39.012-.008-.014,0Zm.135.544.014,0v-.006Zm-.46-1.506c.025-.006.037-.006.047-.008s.012-.006.012-.006Zm.288,1.3c.031-.008.057-.018.072-.022s.016,0,.014-.008A.637.637,0,0,1,10.335,26.842Zm-.362.327c-.016,0-.031.008-.049.008A.135.135,0,0,0,9.972,27.169Zm.239-.552-.027.008.029,0C10.2,26.624,10.2,26.622,10.211,26.617Zm-.327-1.136a.251.251,0,0,0,.065-.022h0l.01-.006-.01.006Zm-.1.145-.012.01s0,0,.014,0S9.786,25.628,9.784,25.626Zm-.047-.141.01,0v0Zm.035.27a.315.315,0,0,1,.049-.02.366.366,0,0,1,.053-.01.213.213,0,0,0,.047-.006.463.463,0,0,0-.1.016l-.041.01C9.771,25.751,9.773,25.755,9.773,25.755Zm.114.7a.407.407,0,0,0-.08.022C9.833,26.47,9.861,26.46,9.886,26.454Zm-.3-.846.014,0c.022-.006.033-.012.065-.02l0,0,.043,0a.083.083,0,0,0-.043,0A.337.337,0,0,0,9.583,25.608Zm.137,1.057.029,0v0Zm-.2-1.122h.012l.022-.008.01-.008A.09.09,0,0,1,9.52,25.543Zm.012.431h.014v0Zm-.1-.137c.012-.006.045-.008.07-.016-.025.008-.047.006-.059.012Zm-.143-.153.012,0h.012Zm.1,1.484a.065.065,0,0,0,.029,0v0Zm-.1.08-.043,0,.029,0Zm-.141-1.492a.127.127,0,0,1,.047,0s0-.01-.025-.01c-.01,0-.022,0-.022.008Zm-.012.441.025,0h.023l.016,0-.016,0H9.158ZM9.07,25.72l.023-.008.006,0,.008,0-.008,0H9.093v0ZM9.04,27.088a.173.173,0,0,0-.045,0ZM8.968,26.2l.018,0,.022,0-.022,0Zm-.131-.441a.07.07,0,0,1-.043,0l0,0s.012.006.035,0Zm-.025-.121.008,0v0H8.811c-.014,0-.014.006-.014.008Zm-.014-.3a.122.122,0,0,0,.053,0Zm-.041.4,0-.016h0l.014-.008,0,0,.008,0-.006,0H8.77v0l-.016.008C8.735,25.729,8.744,25.731,8.756,25.737Zm-.11,1.191c.012,0,.012,0,.027-.008C8.658,26.924,8.633,26.92,8.647,26.928ZM8.631,26.7h.014s0,0-.014,0Zm-.049.067.016,0Zm.012-.707.012,0-.012-.008Zm-.125,1.269s0,0,.018,0l0,0,.029-.006.027,0-.01,0-.018.006-.029.006-.02,0Zm.061-1.89.022,0c.008,0,0,0,0,0S8.539,25.44,8.529,25.44Zm-.092-.084h.012l-.012,0Zm-.748,2H7.671l.016,0ZM8.3,25.577h.01c.012,0,0,0,.012,0A.034.034,0,0,0,8.3,25.577Zm-.47.605c.053,0,.117.016.168.023-.037-.006-.076-.014-.116-.022A.167.167,0,0,0,7.828,26.182Zm-.468.852h.018s0,0-.016-.006Zm-.1.016.047,0c.016,0,0-.014-.012-.023C7.313,27.043,7.278,27.043,7.264,27.049Zm-.141-.607-.01-.008s0,0-.016,0Zm.347-.678s0,.008-.016.008a.1.1,0,0,1,.035,0Zm-.045-.023.022.008a.045.045,0,0,0,.037,0A.1.1,0,0,1,7.425,25.741Zm-.266.689a.363.363,0,0,1,.11.022.459.459,0,0,0-.078-.025C7.174,26.423,7.158,26.427,7.158,26.431Zm.305-1.177.029.018.031.012C7.5,25.275,7.485,25.263,7.464,25.254Zm-.678,1.884h0c.016,0,.037.012.051.014a.14.14,0,0,0-.049-.014Zm.376-1.132.006.024C7.18,26.025,7.182,26.019,7.162,26.006Zm-.366.7c.014.006.014.006.016,0C6.8,26.709,6.81,26.716,6.8,26.711Zm.323-1.163-.01-.006v0Zm.067-.255.029.02c-.01-.008-.008-.014-.006-.018Zm-.36.6.014.006.033.01.016,0-.014-.006,0,0A.264.264,0,0,1,6.825,25.892Zm-.452.5-.016,0,.014.006Zm.127-.243c-.01-.006-.012,0-.012,0Zm.476-1,.01.006,0,.008v0c-.022,0-.014,0,.006.018l.02.012a.065.065,0,0,1-.025-.027c.027.008.018,0,0-.008l0-.006c-.01-.006-.01-.006-.012,0S6.968,25.142,6.976,25.146Zm-.145.278.031.016c-.01,0-.01,0-.01-.008Zm.2-.558.006.008,0,0ZM6.44,25.9l.022.008.016.008a.206.206,0,0,0,.063.018c.031.006.053.006.067-.006-.027-.006-.051-.016-.055-.008s0,.012-.012.014-.047-.014-.078-.025Zm-.02.012.012,0-.012-.008Zm-.057.045-.023-.012.023.014.047.031a.12.12,0,0,0-.047-.031Zm.507-1.089,0,.016a.125.125,0,0,0,.031.012C6.886,24.882,6.867,24.872,6.87,24.866Zm-.331.591a.105.105,0,0,0,.031.02c.012,0,.014,0,.016,0A.143.143,0,0,1,6.54,25.457ZM5.8,26.789l.031.016s0,0,.014.006A.241.241,0,0,0,5.8,26.789ZM6.485,25.3c-.012-.008-.012,0-.012,0Zm.325-.633.014.012.022.01.01,0-.01,0A.107.107,0,0,1,6.81,24.67ZM5.6,26.38l.041.024s0,0-.01-.01A.09.09,0,0,1,5.6,26.38Zm.817-1.469-.008-.006,0,0S6.408,24.905,6.416,24.911Zm.123-.288a.223.223,0,0,0,.049.041.082.082,0,0,1-.041-.055Zm-.574.5L5.936,25.1l.008.012Zm.215-.072.008,0c.006,0,.012.006.006,0l-.006,0Zm-.041.061.02.018.01.006,0,0C6.162,25.126,6.148,25.122,6.14,25.115Zm-.025-.006-.043-.025c.01.008.008.01.008.012Zm-.049-.223.01.008-.008-.01Zm.266-.452.012.022c-.008-.01-.006-.014,0-.018Zm-.454.462.01.006a.307.307,0,0,0,.069.049,1.2,1.2,0,0,0,.114.07l.023.014.022.01a.248.248,0,0,1-.045-.023.212.212,0,0,0-.061-.039l-.022-.012-.031-.02C5.931,24.932,5.9,24.915,5.878,24.9Zm-.305.392.01.008.012.008-.01-.012S5.582,25.295,5.572,25.287Zm.174-.405a.146.146,0,0,1,.041.025l-.018-.014C5.752,24.874,5.748,24.878,5.746,24.882Zm0-.117a.334.334,0,0,0,.045.059A.214.214,0,0,0,5.748,24.764Zm-.689.867.012.012,0,0ZM6.2,24.181l.022.025.018.01ZM4.981,25.606s0,0,.012.008l-.01-.01Zm-.309.311c.025.022.051.043.072.065a.251.251,0,0,0,.051.039l.014.008C4.76,25.99,4.722,25.961,4.671,25.917Zm-.153-.8a.638.638,0,0,1-.065-.061c-.022-.022-.035-.027-.045-.039A1.327,1.327,0,0,0,4.519,25.122Zm-.305.509a.384.384,0,0,1-.061-.055s0,0-.02,0C4.15,25.581,4.186,25.614,4.213,25.632ZM5.676,24.4l0,0,0-.006,0,.006,0,.008Zm.168-.116-.012,0,.01.008Zm.219-.309c.01,0,.016.016.023.022l.02.01C6.089,23.995,6.073,23.979,6.064,23.975Zm-.106.08a.323.323,0,0,0,.029.033L6,24.1ZM4.6,25.424l.012.012.01.006.014.01A.43.43,0,0,0,4.6,25.424Zm-.053.012a.177.177,0,0,0,.045.035l0,0,.033.027-.01-.01L4.6,25.473A.36.36,0,0,0,4.546,25.436Zm-.025,0,.01.016Zm.605-.648.012.006-.01-.008ZM5.2,24.6a.283.283,0,0,0,.039.022Zm-.2.07a.553.553,0,0,1,.063.07.183.183,0,0,0-.033-.043C5.028,24.68,5.014,24.676,5,24.666Zm.881-.846.008.01,0,0S5.893,23.83,5.885,23.82Zm-.578.46L5.3,24.273c0,.01,0,0,0,0S5.3,24.282,5.308,24.28Zm.243-.255.006.01.006,0Zm-.4.3.008.008.012.006Zm-.213-.257-.012-.008.01.01ZM3.71,25.079s0,0-.008-.01C3.712,25.079,3.7,25.07,3.71,25.079Zm1.206-.916a.065.065,0,0,0-.025-.029l.012.022Zm.584-.409.01.018.014.016A.144.144,0,0,0,5.5,23.754Zm-.292.072v.016a.464.464,0,0,0,.051.063l-.031-.041A.23.23,0,0,1,5.208,23.826Zm.21-.215.006.008,0-.012ZM3.635,24.817s.006.014.016.025c-.008-.016.016.012.016.012C3.659,24.839,3.639,24.813,3.635,24.817ZM5.02,23.763l.006.008,0-.01Zm-.48.309-.014-.022-.008-.012.014.025C4.538,24.075,4.538,24.075,4.54,24.073Zm.746-.6a.1.1,0,0,0,.018.041l0,.008C5.3,23.509,5.3,23.5,5.286,23.478Zm-1.606.871.018.027,0,0ZM3,24.253l-.01-.014Zm2.454-1.14,0,.012,0,0Zm-.781.445,0,.016.014.02C4.7,23.589,4.683,23.568,4.675,23.558Zm.01-.022c0,.014-.006,0,0,.016a.082.082,0,0,0,.014.022V23.56Zm-.352.215,0,.012s0,0,.012.012l-.008-.012ZM4.3,23.7c.006.012.008.01.008.01L4.3,23.7Zm-.505.219.018.02-.014-.023Zm1.022-.713c.012.018.02.039.035.061l.008.01Zm-.319.161a.274.274,0,0,1,.02.031c0-.012-.006-.01-.012-.022Zm-.243.074.014.022c-.006-.014-.01-.012-.012-.022Zm-.086.045.008.012,0-.012Zm.658-.478.008.022,0,0Zm-.211.053a.162.162,0,0,1,.018.031l-.006-.012-.01-.02Zm-.46.027.008.012-.006-.014Zm-.452.049c0,.016.01.043,0,.033l.006.014C3.71,23.18,3.71,23.164,3.7,23.137Zm.38-.213a.276.276,0,0,1,.02.061c0-.016,0-.018-.006-.039S4.084,22.933,4.078,22.923Zm.9-.415v.006l0,.016,0-.016Zm-1.016.4a.149.149,0,0,1,.012.039l0-.014Zm-.037-.069s0,0,0,.014l.006,0Zm-.615.233.01.014-.006-.014Zm-.822.294.006.016h0Zm-.012-.084.014.025,0,0,0,0-.01-.025Zm2.107-.824.008.02,0-.014ZM3.663,21.9c0-.012,0-.01,0-.01l0,.01Zm-.768.86-.031-.07.012.027A.145.145,0,0,0,2.9,22.759Zm.885-.28c0,.012,0,.014-.006.016l.018.022A.137.137,0,0,1,3.78,22.479Zm-.723.061c.018.07.051.141.069.194C3.109,22.681,3.081,22.61,3.058,22.54Zm1.547-.5.018.037A.166.166,0,0,0,4.6,22.04Zm.006.031.006.01C4.613,22.07,4.613,22.07,4.611,22.072Zm-2.019.335c-.014-.045-.029-.094-.041-.139l-.041-.139,0,.014.022.07.02.07c.01.027.016.059.027.09l.012.033c.037.123.076.247.121.376-.018-.065-.033-.108-.053-.168l-.018-.049-.016-.053ZM4.3,21.876l0-.022,0,0Zm-.18.186a.132.132,0,0,1,.008.047s0,0,0-.012a.072.072,0,0,0-.008-.035Zm-.305.059,0,.014.012.022Zm-.307-.012,0,.016.006.01Zm1.243-.46a.629.629,0,0,0,.012.141V21.8a.156.156,0,0,0,0,.022l.014.029c-.006-.02-.012-.039-.016-.057l-.006-.067,0-.035Zm-1.478.239.008.027c0-.016,0-.016,0-.027Zm-.031-.024a.23.23,0,0,1,.006.041.3.3,0,0,1,0-.043S3.24,21.848,3.24,21.864Zm.938-.272.008.012,0-.012C4.176,21.58,4.178,21.592,4.178,21.592Zm.239-.088,0,.01h0Zm-.838.106,0,.01v0a.307.307,0,0,1,.02.076l0-.012c0-.027-.008-.063-.016-.065Zm.037-.163a.165.165,0,0,0-.008-.053l0,.014A.1.1,0,0,0,3.616,21.447Zm.437-.031-.008.014h.006S4.055,21.429,4.053,21.416Zm-.331.024a.041.041,0,0,0,0,.023.093.093,0,0,1,.008-.039S3.718,21.41,3.722,21.439Zm-.033-.08c0,.016.008.053.01.067A.117.117,0,0,0,3.688,21.359Zm.75-.145-.006.012.008.029A.1.1,0,0,1,4.438,21.214Zm-.971-.008v0Zm0-.153,0,.006,0-.006,0-.022v.027Zm.848-.059,0,.01c.006,0,.012.006.016.018s.006.027.008.049a.084.084,0,0,1,.006-.043C4.333,21,4.323,21,4.317,20.995ZM3.07,20.983v.027l.006-.016Zm1.1-.049v0Zm.082-.053,0,.033c.008.012.008-.01.008-.024l-.008-.01Zm.08-.18a.3.3,0,0,0,0,.043l0,.022,0-.012v-.01A.159.159,0,0,0,4.331,20.7ZM3.9,20.519c0,.014,0,.014,0,.022s.014-.008.018-.02C3.917,20.532,3.908,20.54,3.9,20.519Zm.1-.041,0,.014L4,20.5Zm-1.169-.284v-.016l0,0Zm1.026.082-.006.016v0s-.006.023,0,.035a.349.349,0,0,0,0,.078v-.078l0-.033Zm-.092-.012a.044.044,0,0,0,0,.027c0-.012,0-.012.012-.025Zm-.184-.157,0,.043v.025h0a.088.088,0,0,1,0-.025Zm.685.116a.083.083,0,0,0,0,.037c0,.01,0,0,.006,0a.4.4,0,0,1,0-.049Zm-2.131-.262.006-.018Zm1.308.2a.113.113,0,0,1,0,.037c0-.012.008-.01.006-.022S3.451,20.174,3.449,20.158Zm.967.031,0,.022a.388.388,0,0,0-.016.065h0v0l.016-.065,0-.012Zm-.746-.108a.116.116,0,0,0-.01.037c.012-.025.016-.033.023-.033S3.681,20.058,3.671,20.082Zm-1.42-.307a.213.213,0,0,0-.008.051l.006-.018A.109.109,0,0,0,2.251,19.775Zm1.635.255,0,.01.006.016C3.89,20.043,3.89,20.029,3.886,20.029Zm-.75-.235-.014.043s.006,0,.01-.016A.057.057,0,0,0,3.136,19.794Zm1.159.153,0,.012,0,.047L4.3,20C4.3,19.994,4.291,19.982,4.3,19.947Zm-.023-.006-.008.045,0,0-.01.022.012-.024a.061.061,0,0,0,.01-.043Zm-.666-.65c.008-.025.025-.067.029-.09s0-.014,0-.014C3.626,19.224,3.618,19.252,3.606,19.291Zm-.591-.26.006.049C3.023,19.048,3.023,19.034,3.015,19.03Zm-.691.01,0-.014,0,0a.618.618,0,0,0,.047-.178l.006-.035-.014.055-.014.049-.027.112Zm.517.352a.275.275,0,0,1-.016.092.1.1,0,0,0,.018-.057Zm-.182-.043,0-.018V19.32Zm1.923.456v.01l0-.008Zm-1.012-.3a.447.447,0,0,1,0,.053.423.423,0,0,0,.01-.053ZM3.387,19.4l0,.027,0,.014Zm1.165.258,0-.01v-.012a.12.12,0,0,1-.006.035l0-.008Zm.2.023-.01.02h0ZM3.22,19.2l0-.029,0,.016Zm.419.024a.358.358,0,0,1-.023.067l.01,0C3.628,19.281,3.634,19.258,3.639,19.228Zm1.024.28c-.006.012-.014.018-.016.029s0,.012,0,0Zm-.507-.164a.371.371,0,0,1-.01.045l.008-.022C4.158,19.357,4.158,19.344,4.156,19.344Zm.366.072-.012.02.008-.012Zm-.5-.211,0,.014Zm.515.131-.006.008c.006-.008.01.006.008.014C4.538,19.35,4.538,19.336,4.534,19.336Zm-.762-.3a.255.255,0,0,1-.022.063c0,.014.006,0,.01-.012l.014-.039Zm-1.259-.619.006-.018-.01.016S2.508,18.429,2.513,18.416Zm2.16.9a.055.055,0,0,0-.012.035Zm-1.8-.828-.008.014a.61.61,0,0,0-.039.1l.039-.1Zm1.96.738v-.012l0,.01s0-.01,0,0v0l-.006.031.006-.031,0-.012Zm-1.745-.734-.01.012S3.079,18.5,3.085,18.488Zm.548.164.01-.01c0-.012,0,0,0-.016Zm1.1.458,0,.012C4.74,19.113,4.738,19.113,4.734,19.111Zm-.864-.4a.11.11,0,0,1-.022.035h0l-.008.01.008-.01h0c.006,0,.006,0,.016-.022Zm1.3.441c-.012.02-.02.037-.012.041ZM4.9,19.03s0,0,0,.012l.006-.008Zm-.372-.264a.235.235,0,0,0-.031.063A.623.623,0,0,1,4.532,18.766Zm-.811-.429,0,.014.006-.014C3.731,18.323,3.722,18.337,3.722,18.337Zm.172-.008-.01.012c-.018.035-.012.037-.006.041A.177.177,0,0,1,3.894,18.329Zm.145.106.016-.023-.006,0Zm.39.155,0,.012C4.432,18.592,4.432,18.592,4.429,18.59Zm.251.092,0,.008.014,0Zm-1.024-.807a.159.159,0,0,0,.02-.041l-.016.025Zm1.255.7.022,0c.012-.022.006-.023.006-.023Zm-.642-.331.01-.006,0,0Zm.627.488-.008.01,0,0Zm-.327-.317,0-.01c-.027.041-.041.049-.057.055l0,.01Zm.631.264-.025.022-.023.022v0l0,0-.01.012-.006.012.006-.012.01-.012,0-.006.014-.012.01-.01Zm.157.033-.008.008c-.014.016-.022.035-.016.039A.148.148,0,0,1,5.355,18.707Zm-1.242-.76-.01.012c-.006.012-.006.012,0,.014Zm.243.133-.018.022.012-.01Zm-.4-.251a.374.374,0,0,1-.047.121.687.687,0,0,0,.037-.069l.016-.051C3.964,17.82,3.955,17.832,3.953,17.83Zm-.268-.4-.023.039c.018-.027.02-.027.025-.023C3.69,17.434,3.688,17.433,3.684,17.431Zm.83.325s.006,0,.016,0c-.006,0,0-.018.008-.025Zm.7.586-.008.006,0,0ZM4.9,18.12l-.012,0-.008.01C4.887,18.124,4.893,18.128,4.9,18.12Zm-.6-.468.014-.018Zm.435.2c-.016.018-.022.031-.037.051l-.008.012C4.7,17.891,4.722,17.873,4.734,17.852Zm.9.578-.016.022-.02.027.02-.027ZM4.36,17.407l.006-.016-.006.016-.008.012,0,.012Zm.47.323-.018.02s0,0,.01-.008Zm-.478-.662a.326.326,0,0,1,.045-.074l0,0c.023-.029.047-.051.074-.088-.029.033-.057.063-.076.09A.2.2,0,0,0,4.352,17.068Zm-.292-.121.025-.022-.016.008Zm.646.507h0C4.718,17.444,4.707,17.454,4.707,17.454Zm-.255-.106s0,0,.008-.006l.01-.025Zm1.269.932,0,.012,0-.01Zm-.147-.164-.016.037-.033.047.014-.016.02-.031C5.568,18.137,5.576,18.126,5.574,18.116ZM5.333,17.9c-.02.016-.014.02-.01.024S5.325,17.908,5.333,17.9Zm-.544-.468.023-.029a.244.244,0,0,0,.029-.049A.424.424,0,0,1,4.789,17.433Zm-.125-.155s-.006-.006-.023.012l-.01.014C4.65,17.286,4.662,17.276,4.664,17.278Zm.206.137c-.008.012,0,0,0,0s0,0,.008-.014Zm.854.681c-.018.02-.039.045-.053.059l.014-.014A.376.376,0,0,0,5.723,18.1ZM4.654,17.045l-.014.02-.008.008L4.6,17.1c-.039.037-.076.067-.11.1a.838.838,0,0,0,.11-.1l.025-.023.006-.008.008-.008Zm.221-.137.01-.01,0,0Zm-.266-.2.014-.01,0,0Zm0,.121a.319.319,0,0,0,.053-.049s0,0-.012.008A.389.389,0,0,1,4.609,16.833Zm.734.636a.257.257,0,0,1,.074-.063.2.2,0,0,0-.084.072Zm.127-.043-.01,0-.008.025.006-.006Zm.057-.1-.01.008Zm-.558-.619-.012.01C4.971,16.708,4.969,16.708,4.969,16.708Zm.163-.4.023-.02L5.13,16.3C5.143,16.3,5.132,16.307,5.132,16.307Zm.9,1.148c-.025.033-.076.074-.106.114A.5.5,0,0,0,6.028,17.454Zm-.1-.149-.018.012,0,0ZM5.265,16.4a.4.4,0,0,1-.051.053l.012-.01a.136.136,0,0,0,.043-.039Zm.074.043-.01.012.014-.01Zm0-.317.012-.012c.029-.023.061-.047.09-.069l-.078.059-.012.01a.564.564,0,0,0-.084.082C5.3,16.169,5.335,16.144,5.341,16.124Zm.125.117a.431.431,0,0,1-.045.039l.025-.018Zm.074-.092s0,0-.012.012l.012-.008Zm.072-.014c-.016.006-.016,0-.016,0s-.01.006-.008.01Zm.043.063.023-.02s.012-.01-.012.008C5.668,16.187,5.67,16.189,5.656,16.2Zm.378.419L6,16.643s.022-.016.012,0C6.026,16.632,6.025,16.628,6.034,16.618Zm.208.206-.018.02a.364.364,0,0,1-.037.022c.014,0,.023,0,.031-.016l.006-.006Zm-.266-.548s0,0,.014-.008,0,0,.006-.01Zm.235.478a.2.2,0,0,1,.053-.055l-.01.008a.115.115,0,0,0-.039.029C6.207,16.747,6.22,16.743,6.211,16.753Zm.345.36-.01.008c-.01,0-.018.008-.035.023l-.025.02C6.51,17.145,6.53,17.133,6.555,17.113ZM6.1,16.322l.016-.008-.016.008a.365.365,0,0,0-.045.025l.014,0Zm.3.382-.033.012s.022-.008.012.006Zm.141-.446c-.02.01-.012,0-.014,0l-.01.008.016,0Zm.258.008-.016.025c-.006.006,0,0,.01,0l0,0,0,0h0C6.782,16.287,6.786,16.275,6.8,16.265Zm-.307-.689-.012.008.014,0Zm.638.991-.012,0h.012Zm-.184-.47c-.023.014-.035.014-.07.033.014,0,.016,0,.018.006A.153.153,0,0,1,6.943,16.1Zm-.153-.36c-.012.01-.012.008-.012.008v0Zm.317.505c0,.008-.016.018-.039.027.012-.006.012,0,.012,0C7.1,16.258,7.135,16.238,7.107,16.242Zm.065-.043a.146.146,0,0,0-.039.008l0,.012A.071.071,0,0,1,7.172,16.2Zm-.037-.176-.008,0-.006,0,.006,0h.008Zm.147.047-.02.016.012,0S7.272,16.075,7.282,16.07ZM7.2,15.476l-.029.01c-.012.006,0,.006,0,.01Zm.033-.217-.1.023H7.115l-.016.01-.022.008-.014.008.014-.008.022-.008.029-.01A.315.315,0,0,0,7.229,15.259Zm.18.443.023,0-.053,0S7.382,15.709,7.409,15.7Zm.129.317-.023,0-.006.008-.012.012.012-.012ZM9.9,15.7l.014,0h.014C9.916,15.7,9.916,15.7,9.9,15.7Zm-.045-.364.023.008s0,0-.01,0Zm-.339.315.014,0a.042.042,0,0,1-.02-.012C9.512,15.643,9.5,15.645,9.518,15.651Zm-.137,0,.008,0v0Zm-.067-.2.012,0s0-.01.027-.01C9.326,15.437,9.3,15.439,9.314,15.445ZM9.2,15.316c0-.006.029-.012.059-.014a.159.159,0,0,0-.043,0C9.187,15.3,9.173,15.308,9.2,15.316Zm-.27-.045a.461.461,0,0,0,.055-.008l.055,0a.138.138,0,0,0-.041,0H8.981A.2.2,0,0,0,8.927,15.271Zm.069.27.014,0v0Zm-.139-.362.029,0,.025.008-.025-.008-.014,0Zm.031.143.012,0Zm-.08.515c.014,0,.025,0,.035,0A.1.1,0,0,1,8.807,15.837Zm-.076-.681c.029,0,.039-.008.027-.012Zm-.272.368c.012,0,.012.01.035,0s.029,0,.057,0A.7.7,0,0,1,8.459,15.523Zm.012.1a.121.121,0,0,1,.047,0s0-.01-.037-.006C8.468,15.621,8.468,15.623,8.47,15.627Zm0,.125.025-.006-.012,0Zm-.2-.566h.016l.012,0A.082.082,0,0,0,8.271,15.186Zm-.016.227.078-.014a.354.354,0,0,1-.049,0l-.029.008ZM8.1,15.022l.088-.012A.679.679,0,0,0,8.1,15.022Zm-.1.194.029-.006c.023-.006.023-.01.01-.01S8.02,15.212,8.006,15.216Zm-.078.055a.1.1,0,0,0,.039-.01l-.01-.006H7.942Zm-.057.341.014,0L7.9,15.6Zm-.114-.28.029,0,0,.006,0-.006S7.779,15.327,7.758,15.331Zm-.033-.008h0l.029-.012Zm-.086-.2h0c0,.006.006.008.022.006l0,0,.014,0-.018,0-.022-.006.01,0Zm-.135.164-.016,0c.016,0,.016,0,.016,0Zm.131.249a.123.123,0,0,1-.051,0v0A.13.13,0,0,0,7.634,15.533Zm-.078-.376-.053.01a.125.125,0,0,1,.039,0Zm.223.8L7.8,15.95a.128.128,0,0,0-.035.008Zm.264.258s-.014,0-.023,0c.014,0,.022.006.022.012-.029.008-.029.02-.037.031.027-.014.041-.025.037-.031l.014-.006C8.069,16.218,8.055,16.214,8.043,16.216Zm.439-.067-.014,0,0,0Zm.452-.067-.023.006-.023,0,.022,0h0Zm.186.09c-.023,0-.037,0-.049,0s-.033,0-.033.006C9.064,16.173,9.083,16.173,9.12,16.173Zm.123.025-.008,0,.008.012Zm.666-.327-.023-.01-.027,0c-.012,0-.014,0-.022,0l-.051-.006-.037,0a.533.533,0,0,0-.061,0c-.025,0-.051,0-.078,0l-.086-.008c-.012,0-.012,0-.023-.008l-.035,0-.025,0-.025,0-.047,0H9.314c-.035,0-.074,0-.112,0l-.049,0a1.781,1.781,0,0,1-.186.01l-.014.006-.035.008c-.023,0-.049,0-.084,0l-.039.008-.072.006a.506.506,0,0,0-.072.012H8.637l-.012,0a.191.191,0,0,0-.047.008l-.184.033-.055.008c-.02,0-.039.008-.059.01-.039.008-.08.016-.119.025A.335.335,0,0,0,8.077,16l-.025.008-.074.027c-.023.008-.049.02-.072.027h0l-.023.008-.023.006c-.023.006-.033.012-.045.014l.033-.008.035-.012.025-.008.059-.016c.02-.008.039-.012.057-.018a3.129,3.129,0,0,1,.366-.09c.18-.033.349-.061.519-.076.027,0,.053-.006.078-.008s.053,0,.08,0c.049,0,.1,0,.153-.006s.1,0,.153,0h.155l.039.006.023.006c.012,0,.037,0,.063,0h.027l.022,0a.3.3,0,0,0,.074.006.24.24,0,0,0,.037,0l.012,0,0,0a.078.078,0,0,1,.022,0l.041,0Zm.241-.472.014,0,.02,0,.035.008-.035-.008A.186.186,0,0,0,10.15,15.4Zm-.063.421,0-.008h-.012C10.1,15.817,10.076,15.815,10.088,15.821Zm.012.529h-.012C10.1,16.352,10.1,16.35,10.1,16.35Zm.02-.027a.752.752,0,0,1-.078-.022c-.023-.01-.047-.018-.076-.027.023.01.047.018.076.027a.279.279,0,0,0,.067.018Zm.217.035a.283.283,0,0,1-.059-.01l.01,0,.023.008C10.323,16.361,10.325,16.357,10.337,16.357Zm.206-.593a.781.781,0,0,0-.08-.027l-.023-.012-.029,0c-.037-.008-.072-.016-.108-.02a.227.227,0,0,1,.047.01.193.193,0,0,0,.061.01l.053.016A.483.483,0,0,0,10.542,15.764Zm.008-.119v0l-.014-.008v0Zm.08-.092-.02-.008,0,0Zm.016-.053c-.047-.02-.09-.027-.131-.043C10.556,15.472,10.6,15.484,10.646,15.5Zm.417.47a.486.486,0,0,1-.053-.016c.012.008.027.006.051.02Zm.163-.282-.025,0s0,0,.008.006S11.21,15.686,11.226,15.688Zm.166.815-.012,0Zm.46-.472.029.022,0,.014c.01,0,.008-.006,0-.014l0-.006,0,0A.078.078,0,0,0,11.852,16.03Zm-.17.39a.08.08,0,0,1-.049-.014L11.6,16.4l-.02-.01-.012-.008a.12.12,0,0,0-.045-.022c.02.012.039.02.057.029l.02.01A.131.131,0,0,0,11.682,16.42Zm.192-.161-.006-.01c0-.008.014-.01.01-.024-.02,0-.016.008-.01.024Zm.217-.114a.129.129,0,0,1-.029-.027A.079.079,0,0,0,12.091,16.146Zm.069.466a.066.066,0,0,0-.039-.037C12.142,16.59,12.154,16.6,12.16,16.612Zm-.082.337s0,0-.006-.01l-.01-.008Zm.317.023-.023-.02,0,0,0,0,0,.008Zm.413-.123a.461.461,0,0,0-.041-.031l.014.02Zm-.194.55-.029-.025.016.02Zm.329.016s.006,0,0-.016-.012-.006-.014,0Zm.084.014.025.01c-.01-.008-.023-.018-.025-.01L13,17.4c.016.02.027.027.031.037Zm.268.067-.008-.024s-.01-.012,0,0Zm-.251.452c-.012-.023-.016-.022-.018-.02l.016.02Zm.157.024,0-.014-.018-.022Zm.217.38,0-.014-.006,0C13.417,18.353,13.417,18.353,13.419,18.351Zm.161.053-.006-.027s0,.014-.014-.008l.006.012Zm-.029.311s0-.01,0-.022v-.008l0-.008,0,.016Zm.409-.141-.006-.012c.006.012,0,.014,0,.014Zm-.053.116.012.008-.018-.039-.014-.035.014.035.006.031L13.9,18.7Zm-.182.19,0-.014-.016-.035C13.713,18.846,13.722,18.868,13.724,18.88Zm.074-.047,0,0C13.8,18.848,13.8,18.835,13.8,18.833Zm.114-.033a.5.5,0,0,0-.029-.057.033.033,0,0,0-.016-.022l.016.022Zm.094.047A.171.171,0,0,0,14,18.8.182.182,0,0,1,14,18.85Zm-.067.184L13.934,19s0,.014,0,0Zm-.053.255-.008-.02,0,.022Z" transform="translate(-1.989 -14.963)" fill="#c84097" fill-rule="evenodd"/>
    <path id="Path_31" data-name="Path 31" d="M7.994,19.182s0,0,.008-.01a.066.066,0,0,0,.006-.027L8,19.157C7.986,19.18,7.99,19.18,7.994,19.182Z" transform="translate(3.761 -10.955)" fill="#c84097" fill-rule="evenodd"/>
  </g>
  <g id="Group_14" data-name="Group 14" transform="translate(3.881 3.955)">
    <path id="Path_32" data-name="Path 32" d="M7.752,17.561c-.221.217-.435.431-.656.65a1.25,1.25,0,0,0-1.061-.305,1.266,1.266,0,0,0-.73.386,1.361,1.361,0,0,0,1.318,2.272,1.027,1.027,0,0,0,.813-.856H6.412c-.176,0-.176,0-.176-.17,0-.213,0-.427,0-.642,0-.08.027-.106.108-.106.642,0,1.287,0,1.931,0,.037,0,.1.047.108.078A2.32,2.32,0,0,1,7.9,20.808a2.061,2.061,0,0,1-1.713.707,2.266,2.266,0,0,1-.131-4.523A2.167,2.167,0,0,1,7.752,17.561Z" transform="translate(-3.972 -16.982)" fill="#c84097" fill-rule="evenodd"/>
    <path id="Path_33" data-name="Path 33" d="M7.886,18.321c.221,0,.429.008.636,0,.123,0,.168.039.157.161a2.129,2.129,0,0,0,0,.3c.006.1-.037.127-.133.123-.211-.006-.427,0-.66,0v.617c0,.178,0,.178-.186.178-.088,0-.176,0-.266,0s-.123-.033-.121-.121c0-.219,0-.437,0-.674-.221,0-.433,0-.644,0-.116,0-.163-.029-.151-.149a2.65,2.65,0,0,0,0-.305c0-.092.035-.127.125-.123.215,0,.433,0,.67,0,0-.221.006-.429,0-.634-.006-.127.039-.166.161-.155a2.1,2.1,0,0,0,.294,0c.1-.006.123.035.121.123C7.884,17.873,7.886,18.088,7.886,18.321Z" transform="translate(-1.532 -16.458)" fill="#c84097" fill-rule="evenodd"/>
  </g>
</svg>
