<svg id="instagram" xmlns="http://www.w3.org/2000/svg" width="12.611" height="12.443" viewBox="0 0 12.611 12.443">
  <g id="Group_8" data-name="Group 8" transform="translate(0 0)">
    <g id="Group_6" data-name="Group 6">
      <path id="Path_12" data-name="Path 12" d="M20.292,21.3a.511.511,0,0,0,.078,0c.016,0,.029-.01.016-.01A.255.255,0,0,0,20.292,21.3Z" transform="translate(-13.004 -8.9)" fill="#c84097" fill-rule="evenodd"/>
      <path id="Path_13" data-name="Path 13" d="M22.74,18.579c.006-.024.008-.059,0-.063l-.01.012a.468.468,0,0,0-.02.057c-.006.039-.006.051,0,.055S22.732,18.616,22.74,18.579Z" transform="translate(-10.69 -11.558)" fill="#c84097" fill-rule="evenodd"/>
      <path id="Path_14" data-name="Path 14" d="M28.832,20.826c-.008-.155-.02-.309-.039-.462-.022-.088-.033-.2-.053-.3-.012-.072-.033-.131-.047-.211l-.012-.057a.549.549,0,0,1-.018-.061.551.551,0,0,0-.02-.061.538.538,0,0,0-.02-.067l-.023-.057c-.012-.063-.045-.117-.057-.18,0,0,0,.012,0,0h0l0-.012-.008-.01c-.006,0-.012,0,0,.037s.022.061.027.1a.624.624,0,0,0,.023.112.306.306,0,0,1,.018.088c.008.031.016.061.022.088s.014.059.018.08l-.006.014c-.018.018-.02.018-.006.094l.008.049a1.1,1.1,0,0,1,0,.114c.008.086,0,.137-.025.139a.079.079,0,0,0-.01-.033.315.315,0,0,1-.022-.084c-.012-.043-.02-.082-.029-.127l-.018-.069-.016-.07c-.035-.139-.072-.3-.125-.446-.012-.035-.027-.07-.039-.1a.65.65,0,0,0-.045-.1l-.012-.033-.016-.035-.022-.069c-.02-.045-.039-.086-.059-.125-.057-.1-.106-.231-.166-.325a.254.254,0,0,0-.043-.061.244.244,0,0,1-.041-.047c-.012-.02-.025-.047-.041-.072a.292.292,0,0,0-.067-.082c-.055-.072-.1-.141-.147-.194-.006-.012-.031-.041-.037-.053s-.031-.047-.045-.067-.039-.037-.061-.061a.094.094,0,0,1-.023-.031l-.01-.006h0l-.016-.018c-.033-.037-.061-.074-.094-.11l-.01-.008,0,0c-.018-.018-.035-.045-.053-.061l-.072-.082a.376.376,0,0,0-.074-.057.358.358,0,0,1-.067-.059.276.276,0,0,1-.027-.035c-.012-.012-.02-.025-.029-.037l-.018-.02a.131.131,0,0,1,.023.031.22.22,0,0,1-.061-.043c-.027-.022-.053-.047-.072-.061l-.02-.016-.025-.022c-.023-.014-.043-.043-.063-.057l-.018-.014c-.119-.082-.243-.172-.376-.264l-.01-.006A.306.306,0,0,1,26.382,17l-.049-.033a.883.883,0,0,1-.084-.045l-.076-.049-.041-.027a.112.112,0,0,0-.043-.022c-.02-.012-.037-.023-.061-.035a.387.387,0,0,1-.127-.057l-.033-.012c-.031-.02-.057-.031-.092-.051-.014,0-.033-.016-.043-.018a.4.4,0,0,1-.053-.023v0l-.024-.012-.02-.006-.018-.014c-.1-.035-.2-.072-.305-.11-.067-.027-.092-.031-.106-.016l-.059-.016c-.035-.008-.065-.018-.094-.025a.941.941,0,0,1-.094-.023l-.025,0c0,.012-.006.014.029.029h0c-.123-.033-.243-.051-.368-.072l-.043-.008v0l-.051-.01-.055-.006a.557.557,0,0,1-.057-.006l-.063-.006c-.022,0-.043-.006-.065-.008a.3.3,0,0,0-.061,0A2.927,2.927,0,0,0,23.8,16.3a2.848,2.848,0,0,0-.349.022c-.022,0-.045,0-.078.006l-.049,0-.047.008a.532.532,0,0,0-.09.012.507.507,0,0,1-.078.018l-.078.016a.661.661,0,0,0-.07.012l-.063.016c-.041.008-.082.022-.125.031a.247.247,0,0,0-.072.022.524.524,0,0,1-.059.023l-.065.018c-.043.012-.088.025-.129.039-.1.039-.211.076-.317.121s-.211.1-.311.151a3.011,3.011,0,0,0-.405.245.338.338,0,0,1-.063.039l-.022.012-.01.016a.481.481,0,0,0-.106.1c-.016.029-.016.029.063,0-.045.043-.1.078-.147.117s-.114.1-.163.149a.409.409,0,0,0-.063.049.7.7,0,0,0-.053.055.174.174,0,0,1-.027.035c-.025.018-.035.035-.031.041l0,0c.016-.014.033-.023.049-.037a.219.219,0,0,0,.039-.033l.01-.006.01,0,.02-.01.025-.018,0,0-.012.022-.018.027,0,.008v0a.17.17,0,0,0-.039.029.185.185,0,0,1-.039.024.452.452,0,0,0-.17.116l-.012.014-.027.029-.024.029-.041.053a.668.668,0,0,1-.043.055l-.018.029-.022.027-.043.043a.456.456,0,0,0-.033.051l-.027.049a.389.389,0,0,1-.037.055.122.122,0,0,1-.025.035.242.242,0,0,0-.041.069.341.341,0,0,1-.051.088l-.016.027a1.256,1.256,0,0,0-.092.17c-.018.037-.035.074-.053.108l-.024.051-.022.049c-.039.106-.086.2-.127.315-.031.084-.065.186-.088.27-.025.106-.057.21-.076.313a.629.629,0,0,1-.016.067l0,.027,0,.027-.008.061c0,.02-.006.039-.008.063s-.008.041-.01.063a.13.13,0,0,1-.008.049l-.008.047c-.008.116-.031.249-.045.37a3.914,3.914,0,0,1-.047.4.52.52,0,0,1-.039.164l0,.031h0a.584.584,0,0,1-.041.1.279.279,0,0,1-.047.057c-.018.023-.039.023-.059.037s-.037.014-.055.047a.191.191,0,0,0-.01.055.542.542,0,0,0,.01.08c.006.023.014.047.018.069l.008.033,0,.039-.006-.02,0-.012v.008l0,0,.006.02h0c.029.108.065.206.094.313s.074.211.116.305c.016.039.031.069.045.1s.035.065.053.1c.01.023.022.043.031.065l.027.063c.057.117.117.223.184.335.027.043.049.086.084.137a2.712,2.712,0,0,0,.18.253.121.121,0,0,1,.022.033c.07.11.168.211.245.315a.678.678,0,0,0,.063.067.394.394,0,0,0,.061.055.373.373,0,0,1,.049.047l.035.031a.112.112,0,0,1,.031.029c.022.02.041.043.061.065s.025.027.037.043l.043.037.041.035.045.035.031.02.035.022c.023.018.041.035.061.053l.049.035.088.061.088.065c.063.039.074.07.051.074s-.031.01-.053.006L21.24,24.4l-.008-.006v0l.008,0,.016.014,0,0-.008.012c0,.022.018.051,0,.059a.137.137,0,0,1,.041.049c0,.016.027.035.065.057s.051.031.072.043l.072.031.047.022.045.027.023.016.024.014.049.023.1.039.343.11h.012l.027.01.027.01.029.014a.255.255,0,0,0,.1.033c.063.012.133.031.194.037a.861.861,0,0,1,.086.014l.1.018.074.012.035,0,.039,0,.072.006c.027,0,.049,0,.072,0a2.078,2.078,0,0,0,.366.02,3.225,3.225,0,0,0,.476-.037l.029-.008,0,0c.061-.012.129-.018.178-.033A.644.644,0,0,1,24.117,25h.01c.088-.02.172-.049.272-.069l.02,0,.025-.012c.02,0,.039-.008.059-.014l.037-.012a.261.261,0,0,0,.039,0l.033-.012c.025-.01.047-.02.072-.027,0-.006.016-.008.027-.008l.027-.008h.02c.014.008.061-.01.092-.01l-.051.014-.027.008h.012l.016-.008a.151.151,0,0,0,.051-.014l.043-.016.039-.016a.838.838,0,0,0,.084-.035.774.774,0,0,1,.106-.055c.018-.01.037-.018.051-.027l.049-.025a.594.594,0,0,1,.092-.049c.051-.025.086-.053.137-.08l.014-.014c.129-.088.268-.18.405-.276a.706.706,0,0,0,.069-.039c.018-.008.041-.025.057-.022-.016.018,0,.012.008.014l0,.01.008-.008-.006,0L26,24.171l.006,0c.006.01.022.01.041,0l.033-.018.039-.024a.16.16,0,0,1,.051-.027c.041-.029.067-.033.082-.029l.027-.012a.041.041,0,0,1,.045.033c0,.031.014.033.069-.012l.02-.01.008-.008c.02-.012.041-.047.057-.047s.025.012.008.039l-.02.037-.059.074a.844.844,0,0,1-.059.067.074.074,0,0,0-.023.033.325.325,0,0,1-.069.069l-.041.051a.913.913,0,0,0-.116.112.259.259,0,0,1-.07.067c-.025.029-.057.061-.09.094a.573.573,0,0,0-.084.086l-.022.012c0,.014-.01.029.006.031.033.01.039.039.043.067s.045.012.106-.031a.456.456,0,0,0,.051-.033l.045-.035a.827.827,0,0,0,.092-.076l.031-.025a.205.205,0,0,0,.033-.027.6.6,0,0,0,.07-.057.747.747,0,0,0,.086-.09c.02-.022.033-.041.051-.061a.564.564,0,0,1,.069-.072l.008-.006a.564.564,0,0,0,.045-.067c.016-.012.031-.029.057-.049l.012-.018.02-.014.012-.006.006-.006.008-.006c.035-.027.07-.059.11-.1l.033-.035.033-.035a.625.625,0,0,1,.065-.061l.016-.016c.012,0,.031-.029.043-.037a.4.4,0,0,0,.072-.069c.023-.027.043-.055.067-.088a.639.639,0,0,1,.055-.088c.022-.029.039-.059.057-.088a1.1,1.1,0,0,1,.07-.1c.027-.029.053-.061.076-.088a1,1,0,0,0,.168-.119c.01-.01.012-.006.016-.006a.381.381,0,0,0,.063-.08l.022-.025.023-.029a.641.641,0,0,0,.049-.063.443.443,0,0,1,.072-.084c.02-.014.035-.014.047,0,0,0,0,0,.012-.008s.006.018.018.01a.018.018,0,0,0,.012.02c0,.053.055.025.08.037l.031.016-.012.02,0,0c.016.01.035.006.041.037s.039,0,.055.01c.02-.018.018.008.037-.01l0,0,.008-.012a.135.135,0,0,1,.061-.039c.027-.016.027.014.031.043l0,.027c.014.006.016.029.014.059s-.01.063-.016.1,0,.055.02.051,0,.025,0,.041l-.012.024a.147.147,0,0,0,.047-.041.7.7,0,0,0,.057-.092l.045-.1c.012-.022.02-.043.027-.061a.166.166,0,0,0,.008-.047c.029-.072.065-.125.088-.188.025-.043.016-.006.012.02.01-.037.012-.065.018-.092l-.008.012a.075.075,0,0,1,.008-.037v.01l.008-.041a.218.218,0,0,0,.008-.045c0-.023.012-.051.018-.076l.012-.035c0-.025.012-.065.014-.092a.217.217,0,0,0,0-.076.428.428,0,0,1,.035-.176.439.439,0,0,1,.039-.08.252.252,0,0,0,.008-.037c.014-.051.02-.092.027-.135s.006-.084.008-.129a.193.193,0,0,1,0-.041l-.01,0,0,.027h0l0-.027h0v-.012h0l0-.025.006-.039V21.7l0-.035.014-.092.01-.031c0-.025.006-.053.008-.074s0-.051.006-.076,0-.049,0-.07,0-.049,0-.07v-.025l0-.039.008-.025v-.035l.01-.014a.189.189,0,0,1,.008-.053.11.11,0,0,1,.01-.035c.008-.02.018-.025.025-.025l0-.012.008-.012c.016-.051.037-.051.057-.051h.027a.531.531,0,0,0,.072.168.15.15,0,0,1,.02.043c.012-.014.012.037.018.053l.014.027a.071.071,0,0,0,.008.039l0,.041c.008.053.02.106.027.163,0,.031,0,.059,0,.082a.158.158,0,0,0,.014.053.268.268,0,0,1,.014.047l.012.053c0-.014,0-.014.008-.012a.628.628,0,0,1,.02.141c0,.055.008.11.008.164l0,.051-.01.061a.434.434,0,0,1-.01.125.6.6,0,0,1-.018.112c-.008.039-.016.08-.023.121l-.006.031-.012.035a.814.814,0,0,0-.016.084.172.172,0,0,1-.023.047.251.251,0,0,0-.025.094.374.374,0,0,0-.008.041h0l0,.016,0,0c.01.02.039-.018.055-.012.031-.033.016.037.023.069s-.008.074,0,.08,0,.025,0,.057l-.008.014c.01-.014.012-.012.016-.01l.014-.041,0-.014.006-.014c-.01,0-.008-.018,0-.059l.006-.012s0,0,0-.014l0,0h0l.01-.043a.449.449,0,0,0,.018-.055c0-.043.023-.1.033-.149s.02-.043.022-.027a.506.506,0,0,1-.023.157l0,.043c0,.029-.008.061-.016.1a.684.684,0,0,1-.035.114.207.207,0,0,1,0,.049c.012,0,0,.045-.02.084l0,.016-.008.012c-.016.041-.01.059-.024.1l0,.018c-.02.039-.039.076-.051.108a.3.3,0,0,0-.018.082.381.381,0,0,1-.033.082l-.01.012a.255.255,0,0,1-.016.041,1.065,1.065,0,0,1-.084.188,1.022,1.022,0,0,0-.065.147,1,1,0,0,1-.049.1.364.364,0,0,1-.037.078.37.37,0,0,1-.031.07c-.016.025-.035.049-.051.072a.564.564,0,0,0-.055.086.306.306,0,0,1-.055.084c-.016.025-.035.051-.051.076s-.029.051-.045.074a.1.1,0,0,0-.029.051c.006,0,0,.02,0,.037a3.071,3.071,0,0,1-.28.325.816.816,0,0,0-.088.114c-.035.051-.084.084-.121.131l-.061.086a.505.505,0,0,0-.1.112l-.024.02-.069.067c-.023.022-.045.045-.069.067l-.063.065-.033.031-.031.031-.069.061-.065.061c-.043.041-.088.08-.135.119a.561.561,0,0,0-.092.08.126.126,0,0,1-.037.025c-.022.016-.037.02-.041.016l-.008.012v0l-.012.008v0c0,.006.022,0,0,.023l-.023.014c-.014.012-.039.025-.049.035-.061.045-.123.09-.188.133-.053.027-.1.067-.137.088s-.108.063-.159.086a.341.341,0,0,0-.094.053l-.057.033-.051.025-.082.037c-.016.006-.012.01-.027.016s.008.014-.022.029l-.025.016s-.01.014-.022.022l-.041.02-.014.008-.039.023-.029.012s-.029.012-.043.022l-.006,0-.006,0c-.029.018-.059.023-.082.039-.157.072-.345.141-.5.2a.687.687,0,0,1-.106.033.405.405,0,0,1-.086.029.21.21,0,0,1-.088.033c-.045.014-.1.031-.149.043a.841.841,0,0,1-.1.025l-.1.023c-.049.012-.09.02-.123.031l-.027.01a.224.224,0,0,1-.049,0s.014-.01.029-.01.045-.012.078-.023l.014,0,.014,0,.029-.012c.016-.008.033-.012.053-.02l.069-.012-.018,0-.018,0c-.016.006-.014.014-.041.014s-.063.012-.092.018-.063.014-.09.025-.059.012-.074.014v0l-.016.008a.2.2,0,0,0-.074.016c-.016.01-.033.018-.031.025a.367.367,0,0,0-.08,0,.613.613,0,0,0-.082.008.39.39,0,0,0-.08.01c-.027,0-.053.006-.082.01s-.059.012-.094.016-.069.008-.106.01-.092,0-.133.008a.2.2,0,0,0-.086.027.179.179,0,0,1-.061,0c-.031,0-.063,0-.063-.008s-.014-.006-.033-.008a1.206,1.206,0,0,1-.174.022l-.043,0a.357.357,0,0,1-.11,0s-.031-.008-.047-.008a.21.21,0,0,0-.035,0l.018,0c-.033,0-.018.008-.033.01l-.029,0v0l-.016,0-.033,0h-.027l-.051-.008a.347.347,0,0,1-.047,0,.57.57,0,0,0-.063.006c-.127-.008-.253-.023-.364-.031v.008a1.793,1.793,0,0,1-.27-.043l-.016,0L22,27.322l-.078-.016-.076-.014-.145-.027-.1-.023a.416.416,0,0,0-.09-.02c-.029-.01-.027-.014-.061-.023l-.114-.033c-.018-.008-.039-.012-.059-.02s-.037-.012-.057-.016a.221.221,0,0,1-.047-.016l-.055-.02-.057-.022c-.037-.012-.078-.023-.117-.039s-.053-.023-.078-.033-.051-.025-.078-.041a.392.392,0,0,0-.076-.031l-.037-.008-.045-.014-.1-.043,0,.006-.006,0-.008,0-.045-.025c-.049-.023-.1-.045-.151-.069-.027-.012-.053-.023-.08-.037l-.072-.041a.25.25,0,0,0-.059-.023c-.043-.025-.1-.063-.117-.059-.045-.023-.084-.051-.127-.076-.014-.006-.035-.02-.057-.031a.405.405,0,0,1-.053-.035c-.027-.018-.053-.039-.08-.057a.221.221,0,0,0-.074-.037.457.457,0,0,1-.082-.055c-.08-.057-.145-.1-.215-.151-.157-.117-.3-.223-.45-.358l-.049-.037c-.045-.039-.086-.076-.127-.116s-.08-.076-.117-.11l-.116-.116c-.037-.033-.069-.07-.1-.108-.092-.094-.168-.182-.253-.282-.106-.131-.221-.276-.325-.425-.039-.063-.08-.121-.117-.18l-.059-.09-.059-.092c-.027-.047-.047-.088-.07-.135-.018-.008-.041-.055-.063-.1s-.033-.059-.049-.088l-.041-.074c-.023-.045-.047-.088-.069-.133s-.043-.092-.063-.137a.364.364,0,0,1-.025-.045.254.254,0,0,1-.039-.059.513.513,0,0,1-.029-.076c-.023-.049-.045-.1-.065-.149s-.043-.1-.063-.149a.2.2,0,0,1-.023-.078.134.134,0,0,1-.033-.061.558.558,0,0,1-.067-.161c-.014-.055-.031-.112-.049-.168s-.029-.106-.045-.157c-.012-.076-.027-.145-.043-.211-.008-.033-.014-.063-.024-.094l-.023-.092a.834.834,0,0,1-.025-.168c0-.041-.012-.092-.016-.141a.907.907,0,0,0-.02-.141,1.053,1.053,0,0,1,0-.153c0-.043.006-.08.008-.121a.64.64,0,0,1,0-.086c0-.035.006-.069.014-.069a.725.725,0,0,1,0-.131c.022-.155.02-.321.031-.505a5.564,5.564,0,0,1,.053-.568c.008-.059.012-.11.016-.159s0-.094.008-.145l.008-.049.016-.116c.006-.037.012-.074.02-.11.012-.076.022-.149.037-.227.008-.041.02-.088.031-.135s.029-.094.045-.141c.02-.067.035-.135.051-.182s.025-.1.043-.149c.01-.025.018-.051.025-.076s.022-.055.033-.08.02-.047.029-.072.023-.055.037-.084a.284.284,0,0,1,.033-.076c.012-.02.02-.029.027-.027l.008-.012c0-.02.018-.051.02-.067l.022-.031.059-.108a.34.34,0,0,1,.027-.053l.031-.051.063-.1c.023-.033.045-.069.069-.106a1.024,1.024,0,0,1,.069-.092c.023-.029.047-.055.067-.078.035-.041.059-.069.053-.029.008,0,0,.023,0,.037s.02-.006.039-.037l.027.018a.239.239,0,0,0-.012.051l.008-.014.008-.016.012-.012.012-.014c.037-.045.072-.09.106-.139s.074-.1.112-.166c.023-.025.047-.069.07-.094a.283.283,0,0,0,.035-.033.321.321,0,0,1,.067-.074l0,0c.012-.016.014-.014.014-.014,0,.02.014.012-.01.055l-.023.049-.027.053a1.12,1.12,0,0,1-.069.117c-.025.053-.045.1-.023.1l.006,0c0,.018-.061.09-.031.076s-.012.047-.018.065c-.02.043-.035.088-.059.133s-.043.1-.067.145c-.012.02-.022.043-.033.063l-.027.065c-.018.041-.033.082-.045.117l-.012.031,0,0-.006.016c0,.018,0,.018,0,.018s0,0,0,.02a1.4,1.4,0,0,1-.027.145c-.01.045.023-.008.031,0l-.008.014v.018c-.012.027-.02.059-.029.086a.2.2,0,0,1-.016.049l-.016.023-.016.031a.122.122,0,0,1-.033.033h0c0,.016.014,0,.031-.033a.537.537,0,0,0,.031-.055l-.012.043,0,.016,0,.006-.006.008.006-.008,0-.006-.012.029,0,.016c-.006.047.006.053.041,0l.033-.037c.02-.051.039-.1.059-.141s.041-.092.065-.141c.016-.025.029-.055.045-.082l.023-.053a.449.449,0,0,1,.027-.053.7.7,0,0,1,.053-.1c.033-.065.072-.131.106-.192.023-.039.035-.063.051-.094.008-.014.024-.043.031-.053a2.44,2.44,0,0,1,.194-.278c.023-.022.069-.088.057-.053l.02-.029c.027-.031.053-.065.076-.094s.055-.057.076-.084c.055-.049.1-.1.155-.143l.018-.006a.548.548,0,0,0,.063-.057.209.209,0,0,1,.057-.045.544.544,0,0,0,.053-.037c.02-.014.043-.029.061-.043.043-.027.076-.051.1-.049.055-.037.11-.082.164-.116.047-.051.1-.1.153-.147.027-.022.055-.047.08-.069a.22.22,0,0,1,.039-.035l.037-.035c.022-.018.043-.037.069-.055s.074-.055.108-.082.07-.057.1-.082a.64.64,0,0,1,.072-.055l.069-.055c.051-.033.1-.07.149-.1l.016,0,.027-.016a1.205,1.205,0,0,1,.1-.069.121.121,0,0,1,.057-.02c-.008.01,0,.02.012.02.043-.02.074-.022.125-.049.069-.035.063-.012.069,0l.012-.006c.039,0,.047.02.031.047a.679.679,0,0,1-.09.108c-.014.033-.047.084,0,.084a.46.46,0,0,1,.061-.035l.023-.016c.025-.018.047-.031.061-.039l.012-.012a.189.189,0,0,0,.057-.033c.051-.033.1-.061.157-.092l.08-.045.08-.047a5.719,5.719,0,0,1,.6-.276c.082-.033.174-.069.286-.1l.025-.012c.17-.039.337-.084.493-.123a.205.205,0,0,1,.059-.01c.033-.008.072-.014.106-.02s.072-.012.108-.016.072-.012.11-.016.07,0,.1-.008a.227.227,0,0,1,.063-.006.292.292,0,0,1,.143,0,.06.06,0,0,1,.027.018.214.214,0,0,1,.092.016c.043,0,.082,0,.119.006a.714.714,0,0,1,.1.012.982.982,0,0,0,.127.016.351.351,0,0,1,.114.031.262.262,0,0,0,.1.037l.074.008c.022,0,.045,0,.069,0,.045.006.088.01.137.018a.713.713,0,0,1,.1.014.279.279,0,0,1,.067.025.432.432,0,0,0,.108.035l.092.016c.029.006.061.012.09.02.065.012.125.029.186.041l.025.02.027.008,0,.008.014,0a.217.217,0,0,1,.069.022l.037.018c.051.016.035.025.063.039.047.01.088.023.131.035s.088.022.135.037l0,0a.089.089,0,0,0,.023,0,3.236,3.236,0,0,1,.593.206.746.746,0,0,1,.121.055c.035.012.063.023.092.035s.057.027.088.045l.282.141c.037.023.074.047.116.069s.08.051.125.076c.088.063.2.127.288.188q.035.024.065.047a.376.376,0,0,1,.061.045,1.443,1.443,0,0,1,.119.1l.069.061a.5.5,0,0,0,.067.051l.022.02c.041.039.08.072.117.112a.737.737,0,0,0,.055.057l.053.057v0a.99.99,0,0,1,.116.139.328.328,0,0,1,.022.067l.008.014.016.025a.334.334,0,0,1,.061.092c.027.033.055.063.08.094l.016.025c.035.041.076.1.108.139a.483.483,0,0,0,.039.078c.018.027.041.057.061.088v.016l.016.022.006.01s0-.012,0,0c.024.035.051.072.076.108s.049.072.069.108l.014.024.014.025,0,.012c.027.047.061.1.086.145.014.027.029.051.043.076s.024.051.037.074a2.553,2.553,0,0,1,.227.533.125.125,0,0,1,0,.061c.01.033.023.07.037.108s.027.074.037.11c.012.051.027.1.037.145a.828.828,0,0,1,.027.127.675.675,0,0,1,.022.114.23.23,0,0,1,0,.088c-.006,0-.014-.012-.023-.049s-.029-.09-.037-.127-.025-.09-.037-.127l-.012-.037-.035-.092-.033-.092c-.039-.072-.043-.069-.053-.039,0,.014,0,.016-.01.018-.01.02-.012.037.008.108,0,.014.012.041.018.067.057.172.106.349.149.525l.014.057.012.055c.008.037.016.072.023.1l.014.053c.012.055.023.108.031.166.006.025.01.053.014.082s.01.055.014.082a.533.533,0,0,1,.008.182.239.239,0,0,0,0,.076c0,.027,0,.059,0,.088l0,.051,0,.049a.626.626,0,0,1,0,.086c0,.029-.012.053-.016.078l-.01.014c-.006.014-.018.014-.022.027v.012C28.842,20.942,28.834,20.914,28.832,20.826Zm-8.448-5.121s.006.008.018,0v0l.014-.01-.014.006S20.406,15.7,20.384,15.705Zm-2.5,1.67a.166.166,0,0,0,.02-.029l0,0,.008-.012-.01.008A.256.256,0,0,1,17.888,17.376Zm-.511.9a.131.131,0,0,0,.012-.031C17.38,18.265,17.384,18.267,17.376,18.28Zm.176.161.01-.031Zm11.373,2.837c0,.027.006.027.01.027a.35.35,0,0,1-.012-.08Zm-.061.035,0-.025,0,.012Zm-.114.605v-.014l0,.014Zm.057.29,0-.01-.008.01Zm.172.241,0-.012,0,0Zm-.384.121,0-.014V22.54l.012-.057v-.008l0-.02,0,.02v.008a.113.113,0,0,0-.012.057Zm.448.656,0-.014-.008.012S29.049,23.213,29.045,23.227Zm-.061.023,0-.014-.008.012Zm-.2.176.008-.014s0,0,0-.014Zm-.83-.227s0,0,.01-.008c-.01.008-.006,0-.01,0Zm.807.4-.01.012s0,0,0,.016Zm-.374-.163a.1.1,0,0,1,.031-.029S28.409,23.405,28.387,23.438Zm.313.176v0a.205.205,0,0,0-.029.059c.01-.02.022-.043.029-.063a.407.407,0,0,0,.053-.08c-.006.008-.016.02-.025.035Zm-.811-.3h0s-.008,0-.006-.014l0,0h0l0-.01,0,.01,0,0C27.878,23.321,27.882,23.325,27.89,23.317Zm.272.282a.478.478,0,0,0,.057-.084.408.408,0,0,0,.027-.059.6.6,0,0,0,.025-.063.437.437,0,0,0-.033.069A.919.919,0,0,1,28.162,23.6Zm-.621-.27.008-.008S27.547,23.319,27.542,23.329Zm.159.151c.006-.01.01-.01.012-.022l-.008,0Zm.145.178.008-.012c-.008.012,0,0,0,0Zm.358.439.012-.01h0Zm-.762-.5,0-.01-.006.01Zm-.157.029.008-.01-.01.008Zm.967.862.025-.035c-.01.014-.006,0-.008,0Zm-.186.108-.018.022c.014-.008.024-.018.01.008l.012-.01Zm-.213-.121v0l.006-.006,0-.006C27.853,24.48,27.853,24.48,27.853,24.478Zm-.789-.64.008-.006Zm.086.206c.006,0,.025-.008.029-.022L27.2,24c-.039.041-.053.043-.061.037S27.136,24.049,27.15,24.043Zm.213.253.008-.01-.008.008Zm.339.39,0-.016a.094.094,0,0,0,.023-.031v0l.024-.031c-.01.008-.029.025-.024.031a.385.385,0,0,0-.023.033v0C27.69,24.692,27.7,24.682,27.7,24.686Zm.157.161.016-.02c.023-.031.051-.065.072-.09-.025.033-.049.053-.072.088v0Zm.168.194.008-.01v0Zm-.037.043L28,25.072l.008-.01L28,25.07S28,25.072,27.99,25.083Zm-.382-.341.006-.008-.012.006Zm-.174.664-.025.014-.01.012Zm-.049-.055-.029.031.01-.012Zm-.29-.621.01-.01s-.006,0,0-.014A.036.036,0,0,0,27.1,24.731Zm.257.374c.027-.033.057-.067.088-.1l.035-.039-.035.039,0,0c-.012.01-.02.024-.031.031A.811.811,0,0,0,27.352,25.1Zm-.157-.133.01-.01-.014.008Zm.333.415.006-.012-.006.008C27.538,25.377,27.528,25.387,27.528,25.387ZM26.9,24.77l.012-.008s-.012.008,0,0Zm-.362-.3a.224.224,0,0,0,.033-.029c-.018.016-.02.01-.033.014Zm.45.517c-.01.008,0,0,0,0s.031-.025.049-.043C27.015,24.962,27,24.97,26.983,24.987Zm.245.333a.275.275,0,0,0,.076-.08l.008-.012A.571.571,0,0,1,27.228,25.32Zm-.055.108.01-.012Zm-.012.482.012-.008.01-.012Zm-.862-.725c.025-.01.029,0,.031,0s0-.018-.01-.012Zm.3.544.014,0c.012-.006,0,0,.01-.01Zm.27.423.008-.008.045-.031.02-.016-.014.01-.006.006-.008,0a.261.261,0,0,0-.037.027ZM25.9,24.492l.024-.008c-.016,0-.016,0-.012-.012l-.006.008Zm-.084,0,.008-.008,0,0Zm.654,1.226c-.012.008-.014,0-.025.01h.016Zm-.3-.493-.008,0,0,0,.014,0Zm-.025-.09-.008.008s0,0,.01,0Zm-.2-.186a.121.121,0,0,0,.047-.033c.01-.008,0,0,.008-.01a.3.3,0,0,1-.057.041Zm.636,1.126a.422.422,0,0,1,.037-.025c-.012.008-.016.006-.016,0Zm-.123-.129.01-.008.012-.012Zm.129.345.012-.008.012-.008-.012.006v0ZM25.732,25l-.018.014h.014Zm.282.4-.01.008,0,0c0,.012-.008.022,0,.023l.012,0v0h-.012v-.023Zm-.439-.73.012,0,.016-.018Zm.055.143v0c0-.008,0-.018.008-.031l-.008.01C25.619,24.813,25.619,24.813,25.63,24.813Zm-.092-.1c.012-.006.02-.016.031-.016h-.012C25.546,24.7,25.548,24.705,25.538,24.713Zm.425.877-.047.029.012-.006a.062.062,0,0,0,.035-.022v0l.022-.018Zm-.578-1H25.4c-.014.018.008.014.018.018,0-.012,0-.02-.018-.018v-.006Zm.143.358s.014,0,.031-.012.008-.01,0-.008S25.538,24.942,25.528,24.946Zm-.018.041.02-.012c0-.006-.014-.006-.023,0S25.521,24.978,25.511,24.987Zm.38.726-.01.006,0,0C25.891,25.716,25.9,25.712,25.891,25.714Zm.329.75c.033-.022.07-.039.1-.053l-.078.039Zm-.552-1.095.016,0,0-.008Zm-.262-.507.018-.008-.01,0Zm-.127.027.02-.008v0Zm.28.65.012-.016c.008-.008.027-.025.014-.025s-.014,0-.014,0S25.572,25.52,25.558,25.54Zm-.027.02.01-.008h0Zm.069.29.041-.023.027-.012-.027.012-.008,0C25.622,25.831,25.611,25.843,25.6,25.849Zm-.108-.09.012-.006.035-.02.024-.012-.024.01v0Zm-.257-.556.006,0h0v0Zm.313,1.525-.033.008h.02S25.532,26.734,25.548,26.728Zm-.364-.9a.714.714,0,0,1,.067-.029s0,0-.01,0A.211.211,0,0,0,25.184,25.825Zm-.074-.125h.008v0Zm-.074-.135h.012l.014,0Zm-.057.018.014.006.01-.006C24.98,25.588,24.992,25.583,24.978,25.583ZM24.7,25.24l.012,0,0,0S24.716,25.236,24.7,25.24Zm.437,1.649.045-.012c-.016,0-.029,0-.029,0Zm-.188-.39.012-.008-.014,0Zm.135.544.014,0v-.006Zm-.46-1.506c.025-.006.037-.006.047-.008s.01-.006.01-.006Zm.288,1.3.072-.022L25,26.812A.745.745,0,0,1,24.916,26.842Zm-.362.327c-.018,0-.031.008-.047.008A.132.132,0,0,0,24.553,27.169Zm.239-.552-.027.008.029,0C24.778,26.624,24.778,26.622,24.792,26.617Zm-.325-1.136a.238.238,0,0,0,.063-.022h0l.008-.006-.008.006Zm-.1.145-.012.01s0,0,.014,0S24.367,25.628,24.365,25.626Zm-.047-.141.012,0v0Zm.033.27c.016-.006.031-.014.051-.02a.366.366,0,0,1,.053-.01.213.213,0,0,0,.047-.006.442.442,0,0,0-.1.016l-.043.01Zm.116.7a.407.407,0,0,0-.08.022C24.414,26.47,24.44,26.46,24.467,26.454Zm-.3-.846.012,0c.022-.006.033-.012.065-.02l0,0,.041,0a.077.077,0,0,0-.041,0A.278.278,0,0,0,24.166,25.608Zm.135,1.057.029,0v0Zm-.2-1.122h.01l.023-.008.01-.008A.09.09,0,0,1,24.1,25.543Zm.012.431h.014v0Zm-.1-.137c.012-.006.047-.008.07-.016-.023.008-.047.006-.059.012Zm-.143-.153.01,0H23.9Zm.1,1.484a.075.075,0,0,0,.031,0v0Zm-.1.08-.043,0,.031,0Zm-.141-1.492a.127.127,0,0,1,.047,0s0-.01-.023-.01-.023,0-.023.008Zm-.012.441.025,0h.023l.016,0-.016,0h-.023Zm-.063-.478.023-.008.006,0,.008,0-.008,0h0l0,0Zm-.029,1.369a.173.173,0,0,0-.045,0Zm-.072-.891.02,0,.02,0-.02,0Zm-.129-.441a.084.084,0,0,1-.047,0v0s.012.006.035,0Zm-.027-.121.008,0v0h-.008c-.016,0-.016.006-.016.008Zm-.016-.3a.13.13,0,0,0,.055,0Zm-.039.4,0-.016h0l.012-.008.006,0,.006,0-.006,0h-.006v0l-.016.008C23.316,25.729,23.327,25.731,23.337,25.737Zm-.11,1.191c.012,0,.012,0,.027-.008C23.239,26.924,23.212,26.92,23.228,26.928Zm-.016-.227h.012s0,0-.012,0Zm-.049.067.016,0Zm.012-.707.012,0-.012-.008Zm-.125,1.269s0,0,.018,0v0l.031-.006.027,0-.01,0-.018.006-.031.006-.018,0Zm.061-1.89.022,0v0C23.122,25.436,23.122,25.44,23.11,25.44Zm-.092-.084h.012l-.012,0Zm-.748,2h-.018l.016,0Zm.609-1.776h.008c.014,0,0,0,.014,0A.032.032,0,0,0,22.879,25.577Zm-.47.605c.055,0,.117.016.168.023-.037-.006-.076-.014-.114-.022A.179.179,0,0,0,22.409,26.182Zm-.466.852h.016s0,0-.016-.006Zm-.1.016.049,0c.016,0,0-.014-.01-.023C21.894,27.043,21.859,27.043,21.843,27.049Zm-.139-.607-.01-.008s0,0-.016,0Zm.347-.678s0,.008-.016.008a.082.082,0,0,1,.033,0ZM22,25.741l.024.008a.044.044,0,0,0,.037,0A.111.111,0,0,1,22,25.741Zm-.264.689a.374.374,0,0,1,.11.022.523.523,0,0,0-.078-.025C21.755,26.423,21.739,26.427,21.739,26.431Zm.305-1.177.029.018.031.012A.581.581,0,0,1,22.045,25.254Zm-.676,1.884h0c.016,0,.037.012.049.014a.129.129,0,0,0-.049-.014Zm.374-1.132,0,.024C21.761,26.025,21.763,26.019,21.743,26.006Zm-.366.7c.016.006.016.006.016,0C21.377,26.709,21.393,26.716,21.377,26.711Zm.323-1.163-.01-.006v0Zm.067-.255.029.02a.015.015,0,0,1-.006-.018Zm-.358.6.01.006c.02.008.031.012.035.01l.016,0-.012-.006,0,0A.206.206,0,0,1,21.408,25.892Zm-.456.5-.016,0,.016.006Zm.129-.243c-.01-.006-.01,0-.01,0Zm.476-1,.01.006,0,.008,0,0c-.022,0-.014,0,.006.018l.018.012c-.016-.014-.022-.023-.022-.027.025.008.016,0,0-.008l0-.006c-.01-.006-.01-.006-.014,0Zm-.147.278.035.016-.012-.008Zm.2-.558,0,.008,0,0ZM21.021,25.9l.023.008.016.008a.173.173,0,0,0,.061.018c.031.006.053.006.065-.006-.023-.006-.049-.016-.053-.008s0,.012-.012.014-.045-.014-.076-.025ZM21,25.91l.012,0L21,25.906Zm-.057.045-.024-.012.024.014.047.031a.12.12,0,0,0-.047-.031Zm.507-1.089,0,.016a.161.161,0,0,0,.031.012C21.467,24.882,21.448,24.872,21.451,24.866Zm-.331.591a.105.105,0,0,0,.031.02c.012,0,.014,0,.016,0A.16.16,0,0,1,21.121,25.457Zm-.738,1.332.031.016s0,0,.016.006A.344.344,0,0,0,20.382,26.789Zm.683-1.486c-.01-.008-.012,0-.012,0Zm.325-.633.016.012.02.01.008,0-.008,0A.131.131,0,0,1,21.391,24.67Zm-1.21,1.71.041.024s0,0-.01-.01A.09.09,0,0,1,20.181,26.38ZM21,24.911l-.01-.006,0,0S20.989,24.905,21,24.911Zm.121-.288a.282.282,0,0,0,.049.041.082.082,0,0,1-.041-.055Zm-.574.5-.031-.023.01.012Zm.215-.072.006,0c.008,0,.012.006.008,0l-.008,0Zm-.041.061.02.018.01.006,0,0Zm-.025-.006-.041-.025.006.012Zm-.049-.223.01.008-.008-.01Zm.268-.452.01.022c-.006-.01-.006-.014,0-.018Zm-.456.462.01.006a.306.306,0,0,0,.069.049.99.99,0,0,0,.114.07l.023.014.022.01a.248.248,0,0,1-.045-.023.212.212,0,0,0-.061-.039l-.02-.012-.033-.02Zm-.305.392.012.008.012.008-.012-.012S20.165,25.295,20.153,25.287Zm.174-.405a.146.146,0,0,1,.041.025l-.018-.014C20.333,24.874,20.329,24.878,20.327,24.882Zm0-.117a.464.464,0,0,0,.045.059A.214.214,0,0,0,20.329,24.764Zm-.689.867.012.012,0,0Zm1.138-1.451.022.025.02.01C20.811,24.208,20.794,24.2,20.778,24.181ZM19.56,25.606s0,0,.016.008l-.012-.01Zm-.307.311c.025.022.051.043.072.065a.443.443,0,0,0,.051.039l.012.008C19.342,25.99,19.3,25.961,19.252,25.917Zm-.151-.8a.5.5,0,0,1-.067-.061c-.022-.022-.035-.027-.045-.039A1.1,1.1,0,0,0,19.1,25.122Zm-.305.509a.323.323,0,0,1-.063-.055s0,0-.018,0C18.73,25.581,18.769,25.614,18.8,25.632ZM20.257,24.4l0,0,0-.006,0,.006,0,.008Zm.168-.116-.012,0,.01.008Zm.221-.309L20.67,24l.018.01C20.67,23.995,20.654,23.979,20.647,23.975Zm-.108.08a.322.322,0,0,0,.029.033l.018.008A.3.3,0,0,1,20.539,24.055ZM19.18,25.424l.012.012.012.006.012.01A.242.242,0,0,0,19.18,25.424Zm-.053.012a.156.156,0,0,0,.047.035l0,0,.029.027-.008-.01-.022-.018A.543.543,0,0,0,19.127,25.436Zm-.025,0,.012.016Zm.6-.648.012.006-.008-.008Zm.078-.192a.283.283,0,0,0,.039.022A.318.318,0,0,1,19.783,24.6Zm-.2.07a.554.554,0,0,1,.063.07.154.154,0,0,0-.035-.043C19.609,24.68,19.6,24.676,19.585,24.666Zm.881-.846.008.01,0,0S20.474,23.83,20.466,23.82Zm-.578.46-.008-.008c0,.01,0,0,0,0S19.885,24.282,19.889,24.28Zm.243-.255.006.01.006,0Zm-.4.3.008.008.012.006Zm-.213-.257-.012-.008.01.01Zm-1.228,1.012s0,0-.008-.01C18.295,25.079,18.281,25.07,18.291,25.079Zm1.206-.916a.08.08,0,0,0-.025-.029l.012.022Zm.584-.409.012.018.01.016A.076.076,0,0,0,20.081,23.754Zm-.292.072v.016a.464.464,0,0,0,.051.063.286.286,0,0,1-.031-.041A.23.23,0,0,1,19.789,23.826ZM20,23.611l0,.008v-.012Zm-1.782,1.206s0,.014.014.025c-.006-.016.016.012.016.012C18.24,24.839,18.222,24.813,18.218,24.817ZM19.6,23.763l0,.008,0-.01Zm-.48.309-.014-.022-.01-.012c.01.012.018.024.014.025S19.121,24.075,19.123,24.073Zm.742-.6a.133.133,0,0,0,.02.041l0,.008C19.879,23.509,19.885,23.5,19.865,23.478Zm-1.606.871a.07.07,0,0,1,.02.027l0,0Zm-.678-.1-.008-.014Zm2.456-1.14,0,.012,0,0Zm-.781.445,0,.016.014.02C19.278,23.589,19.264,23.568,19.256,23.558Zm.01-.022c0,.014,0,0,0,.016l.012.022V23.56Zm-.352.215,0,.012s0,0,.012.012l-.008-.012Zm-.037-.053c.006.012.008.01.008.01l-.006-.012Zm-.505.219.018.02-.014-.023Zm1.022-.713c.012.018.02.039.035.061l.01.01A.642.642,0,0,1,19.393,23.205Zm-.319.161.02.031c0-.012,0-.01-.012-.022Zm-.243.074c.006.01.01.008.014.022l-.012-.022Zm-.086.045.008.012,0-.012Zm.658-.478.008.022,0,0Zm-.211.053a.072.072,0,0,1,.018.031l0-.012-.012-.02Zm-.462.027.008.012,0-.014Zm-.45.049c0,.016.01.043,0,.033l.008.014C18.291,23.18,18.291,23.164,18.279,23.137Zm.378-.213a.28.28,0,0,1,.023.061c0-.016,0-.018-.008-.039S18.665,22.933,18.657,22.923Zm.907-.415v.006l0,.016,0-.016Zm-1.016.4a.149.149,0,0,1,.012.039l0-.014Zm-.035-.069s0,0,0,.014l.008,0Zm-.615.233.006.014,0-.014Zm-.824.294.006.016h0Zm-.01-.084.012.025,0,0,0,0-.01-.025Zm2.105-.824.008.02,0-.014Zm-.924-.562c0-.012,0-.01,0-.01v.01Zm-.768.86-.031-.07.012.027A.145.145,0,0,0,17.476,22.759Zm.885-.28c0,.012,0,.014-.006.016l.018.022Zm-.721.061a1.47,1.47,0,0,0,.069.194C17.69,22.681,17.662,22.61,17.641,22.54Zm1.545-.5a.279.279,0,0,0,.02.037A.16.16,0,0,0,19.186,22.04Zm.006.031.006.01C19.194,22.07,19.194,22.07,19.192,22.072Zm-2.019.335c-.014-.045-.029-.094-.041-.139s-.027-.094-.043-.139l0,.014a.549.549,0,0,1,.02.07.6.6,0,0,1,.022.07c.01.027.018.059.027.09l.012.033c.039.123.076.247.123.376-.02-.065-.035-.108-.053-.168l-.02-.049-.016-.053Zm1.708-.531,0-.022,0,0Zm-.18.186a.132.132,0,0,1,.008.047s.006,0,0-.012a.1.1,0,0,0-.008-.035Zm-.305.059,0,.014c0,.012.006.012.012.022A.188.188,0,0,1,18.395,22.12Zm-.307-.012,0,.016.008.01Zm1.243-.46a.63.63,0,0,0,.012.141V21.8l0,.022.012.029-.016-.057,0-.067,0-.035Zm-1.478.239c0,.014.006.012.01.027,0-.016,0-.016-.006-.027Zm-.033-.024a.22.22,0,0,1,.008.041.155.155,0,0,1,0-.043S17.819,21.848,17.819,21.864Zm.942-.272.008.012,0-.012C18.757,21.58,18.761,21.592,18.761,21.592ZM19,21.5l0,.01h0Zm-.838.106,0,.01v0a.307.307,0,0,1,.02.076v-.012c0-.027-.01-.063-.02-.065Zm.039-.163a.493.493,0,0,0-.008-.053v.014A.1.1,0,0,0,18.2,21.447Zm.435-.031-.006.014h.006Zm-.331.024a.034.034,0,0,0,0,.023.133.133,0,0,1,0-.039S18.3,21.41,18.3,21.439Zm-.033-.08a.421.421,0,0,1,.01.067A.117.117,0,0,0,18.269,21.359Zm.752-.145-.008.012.008.029A.073.073,0,0,1,19.021,21.214Zm-.973-.008,0,.012Zm0-.153,0,.006,0-.006v0Zm.848-.059,0,.01c.006,0,.012.006.016.018s.006.027.008.049a.172.172,0,0,1,.006-.043C18.914,21,18.9,21,18.9,20.995Zm-1.245-.012v.027l0-.016Zm1.1-.049v0Zm.082-.053,0,.033c.008.012.008-.01.008-.024l-.008-.01Zm.078-.18v.043l0,.022,0-.012,0-.01A.08.08,0,0,0,18.91,20.7Zm-.425-.182c0,.014,0,.014,0,.022s.014-.008.018-.02C18.5,20.532,18.489,20.54,18.485,20.519Zm.1-.041-.006.014V20.5Zm-1.169-.284v-.016l0,0Zm1.026.082,0,.016v0s-.008.023,0,.035a.262.262,0,0,0,0,.078v-.078a.1.1,0,0,1,0-.033Zm-.092-.012a.044.044,0,0,0,0,.027c0-.012.006-.012.014-.025Zm-.184-.157,0,.043,0,.025h0a.035.035,0,0,1,0-.025Zm.685.116,0,.037c0,.01,0,0,.006,0a.225.225,0,0,1,0-.049Zm-2.131-.262.008-.018Zm1.308.2a.113.113,0,0,1,0,.037c.006-.012.008-.01.006-.022S18.032,20.174,18.03,20.158ZM19,20.19l0,.022a.388.388,0,0,0-.016.065h0v0c.008-.025.01-.043.016-.065l0-.012Zm-.746-.108a.116.116,0,0,0-.01.037c.01-.025.016-.033.025-.033S18.263,20.058,18.252,20.082Zm-1.42-.307a.213.213,0,0,0-.008.051l.006-.018C16.834,19.79,16.836,19.775,16.832,19.775Zm1.635.255,0,.01s.008,0,.008.016Zm-.75-.235-.014.043s.006,0,.01-.016A.057.057,0,0,0,17.717,19.794Zm1.159.153v.059l.006-.01S18.872,19.982,18.876,19.947Zm-.023-.006a.2.2,0,0,1-.008.045l0,0-.01.022.012-.024a.063.063,0,0,0,.012-.043Zm-.666-.65c.008-.025.025-.067.031-.09s0-.014,0-.014C18.207,19.224,18.2,19.252,18.187,19.291Zm-.593-.26c0,.018,0,.033.008.049C17.6,19.048,17.6,19.034,17.594,19.03Zm-.687.01,0-.014v0a.707.707,0,0,0,.049-.178l0-.035a.448.448,0,0,1-.016.055l-.012.049c-.008.033-.016.067-.025.112Zm.515.352a.336.336,0,0,1-.014.092.123.123,0,0,0,.016-.057Zm-.182-.043,0-.018V19.32Zm1.923.456v.01l0-.008Zm-1.014-.3a.459.459,0,0,1,0,.053.423.423,0,0,0,.01-.053Zm-.18-.108,0,.027,0,.014Zm1.163.258,0-.01v-.012a.128.128,0,0,1-.008.035l0-.008Zm.2.023-.01.02h0C19.331,19.692,19.327,19.692,19.331,19.683ZM17.8,19.2l0-.029,0,.016Zm.421.024a.6.6,0,0,1-.023.067l.008,0A.6.6,0,0,1,18.222,19.228Zm1.024.28c-.008.012-.016.018-.018.029s0,.012,0,0Zm-.509-.164-.01.045.006-.022Zm.366.072-.01.02.008-.012Zm-.5-.211v0Zm.517.131-.008.008c.008-.008.01.006.008.014C19.119,19.35,19.121,19.336,19.117,19.336Zm-.762-.3a.357.357,0,0,1-.023.063c0,.014,0,0,.01-.012l.014-.039Zm-1.263-.619L17.1,18.4l-.01.016S17.089,18.429,17.092,18.416Zm2.162.9a.055.055,0,0,0-.012.035Zm-1.8-.828-.01.014a.477.477,0,0,0-.039.1c.01-.027.025-.072.039-.1Zm1.958.738v-.012l0,.01s0-.01,0,0v0l-.006.031.006-.031,0-.012Zm-1.745-.734-.012.012S17.658,18.5,17.666,18.488Zm.548.164.012-.01c0-.012,0,0,0-.016Zm1.1.458v.012C19.321,19.113,19.319,19.113,19.315,19.111Zm-.864-.4-.02.035h0l-.008.01.008-.01h0s0,0,.016-.022Zm1.3.441c-.014.02-.022.037-.012.041A.189.189,0,0,1,19.752,19.152Zm-.264-.121s0,0,0,.012l0-.008Zm-.374-.264a.312.312,0,0,0-.031.063C19.094,18.807,19.1,18.786,19.113,18.766Zm-.809-.429,0,.014.006-.014C18.312,18.323,18.3,18.337,18.3,18.337Zm.17-.008-.008.012c-.02.035-.012.037-.008.041A.269.269,0,0,1,18.475,18.329Zm.145.106.014-.023,0,0Zm.39.155V18.6C19.013,18.592,19.013,18.592,19.01,18.59Zm.253.092,0,.008c.008-.008.01,0,.012,0Zm-1.026-.807a.159.159,0,0,0,.02-.041l-.016.025Zm1.255.7.022,0c.012-.022.006-.023.006-.023Zm-.642-.331.01-.006,0,0Zm.627.488-.008.01,0,0Zm-.329-.317,0-.01c-.027.041-.041.049-.057.055l0,.01C19.113,18.449,19.127,18.429,19.147,18.41Zm.633.264-.025.022-.025.022v0l0,0-.008.012-.008.012.008-.012.008-.012,0-.006.016-.012.01-.01Zm.159.033-.01.008c-.012.016-.02.035-.016.039A.125.125,0,0,1,19.938,18.707Zm-1.242-.76-.012.012,0,.014A.111.111,0,0,1,18.7,17.948Zm.241.133-.016.022.01-.01Zm-.4-.251a.345.345,0,0,1-.049.121.486.486,0,0,0,.039-.069c.008-.02.01-.035.016-.051S18.536,17.832,18.534,17.83Zm-.266-.4-.027.039c.02-.027.023-.027.027-.023C18.271,17.434,18.269,17.433,18.267,17.431Zm.828.325s.006,0,.016,0c-.006,0,0-.018.008-.025A.192.192,0,0,0,19.1,17.756Zm.7.586-.008.006,0,0Zm-.321-.221-.012,0-.008.01C19.468,18.124,19.474,18.128,19.48,18.12Zm-.6-.468.016-.018Zm.437.2a.486.486,0,0,0-.037.051l-.008.012C19.286,17.891,19.3,17.873,19.315,17.852Zm.9.578-.016.022-.018.027.018-.027Zm-1.273-1.022.008-.016-.008.016-.008.012,0,.012Zm.47.323-.02.02s0,0,.012-.008Zm-.478-.662a.326.326,0,0,1,.045-.074v0a.883.883,0,0,0,.076-.088c-.029.033-.057.063-.076.09A.227.227,0,0,0,18.933,17.068Zm-.292-.121.023-.022-.014.008Zm.646.507h0C19.3,17.444,19.288,17.454,19.288,17.454Zm-.255-.106s0,0,.008-.006l.01-.025Zm1.269.932,0,.012.008-.01Zm-.145-.164-.016.037-.035.047.012-.016a.144.144,0,0,0,.023-.031A.108.108,0,0,0,20.157,18.116Zm-.241-.215c-.02.016-.016.02-.012.024S19.906,17.908,19.916,17.9Zm-.548-.468.025-.029a.176.176,0,0,0,.029-.049A.3.3,0,0,1,19.368,17.433Zm-.121-.155s-.008-.006-.025.012l-.01.014C19.231,17.286,19.243,17.276,19.247,17.278Zm.2.137c-.008.012,0,0,0,0s0,0,.008-.014Zm.856.681c-.02.02-.041.045-.055.059l.014-.014C20.28,18.128,20.294,18.108,20.306,18.1Zm-1.071-1.052-.016.02-.008.008a.215.215,0,0,1-.029.031c-.039.037-.076.067-.11.1a.838.838,0,0,0,.11-.1l.025-.023,0-.008.008-.008Zm.221-.137.01-.01,0,0Zm-.266-.2.016-.01,0,0Zm0,.121a.319.319,0,0,0,.053-.049s0,0-.012.008S19.211,16.816,19.19,16.833Zm.734.636A.257.257,0,0,1,20,17.407a.189.189,0,0,0-.082.072Zm.127-.043-.01,0-.008.025.006-.006Zm.057-.1-.008.008Zm-.558-.619-.012.01C19.552,16.708,19.55,16.708,19.55,16.708Zm.163-.4.024-.02-.027.018C19.724,16.3,19.713,16.307,19.713,16.307Zm.895,1.148c-.023.033-.076.074-.1.114A.442.442,0,0,0,20.607,17.454Zm-.1-.149-.018.012,0,0Zm-.664-.907a.36.36,0,0,1-.055.053l.012-.01a.148.148,0,0,0,.047-.039Zm.072.043-.008.012.012-.01Zm0-.317.012-.012a1.051,1.051,0,0,1,.088-.069l-.078.059-.01.01a.421.421,0,0,0-.084.082C19.879,16.169,19.916,16.144,19.924,16.124Zm.123.117a.409.409,0,0,1-.043.039l.024-.018Zm.074-.092-.012.012.012-.008Zm.072-.014c-.014.006-.014,0-.014,0s-.012.006-.008.01Zm.043.063.025-.02s.008-.01-.014.008C20.249,16.187,20.251,16.189,20.237,16.2Zm.378.419-.031.025s.02-.016.012,0C20.607,16.632,20.6,16.628,20.615,16.618Zm.208.206-.018.02a.364.364,0,0,1-.037.022c.012,0,.023,0,.031-.016l.006-.006Zm-.266-.548s0,0,.014-.008l.006-.01C20.566,16.263,20.57,16.267,20.557,16.275Zm.235.478a.2.2,0,0,1,.053-.055l-.01.008a.115.115,0,0,0-.039.029C20.788,16.747,20.8,16.743,20.792,16.753Zm.345.36-.008.008c-.012,0-.02.008-.039.023l-.023.02C21.089,17.145,21.109,17.133,21.136,17.113Zm-.46-.791.018-.008-.018.008c-.018.01-.035.02-.043.025l.014,0Zm.3.382-.035.012s.022-.008.012.006Zm.139-.446c-.022.01-.012,0-.014,0l-.012.008.016,0Zm.258.008-.016.025c-.008.006,0,0,.012,0l0,0,0,0h0C21.363,16.287,21.369,16.275,21.377,16.265Zm-.305-.689-.012.008.012,0Zm.638.991-.012,0h.012Zm-.188-.47c-.023.014-.033.014-.069.033.016,0,.016,0,.02.006A.133.133,0,0,1,21.522,16.1Zm-.149-.36c-.014.01-.016.008-.016.008l0,0Zm.317.505c0,.008-.018.018-.041.027.01-.006.012,0,.012,0C21.683,16.258,21.718,16.238,21.69,16.242Zm.061-.043a.152.152,0,0,0-.037.008l0,.012A.074.074,0,0,1,21.751,16.2Zm-.035-.176-.008,0-.006,0,.006,0h.01Zm.147.047-.02.016.012,0Zm-.086-.593-.029.01c-.012.006,0,.006,0,.01Zm.033-.217c-.035.008-.07.018-.1.023H21.7l-.018.01-.022.008-.014.008.014-.008.022-.008.029-.01A.315.315,0,0,0,21.81,15.259Zm.178.443.023,0-.051,0S21.963,15.709,21.988,15.7Zm.131.317-.023,0-.006.008-.014.012.014-.012Zm2.364-.319.016,0h.01C24.5,15.7,24.5,15.7,24.483,15.7Zm-.047-.364.025.008s0,0-.01,0Zm-.335.315.01,0-.018-.012C24.093,15.643,24.079,15.645,24.1,15.651Zm-.139,0,.008,0v0Zm-.065-.2.01,0s0-.01.029-.01C23.909,15.437,23.882,15.439,23.9,15.445Zm-.119-.129c0-.006.029-.012.059-.014a.159.159,0,0,0-.043,0C23.768,15.3,23.754,15.308,23.778,15.316Zm-.27-.045a.378.378,0,0,0,.053-.008l.057,0a.134.134,0,0,0-.041,0H23.56A.214.214,0,0,0,23.508,15.271Zm.069.27.016,0v0Zm-.137-.362.025,0,.027.008a.057.057,0,0,0-.027-.008l-.012,0Zm.029.143.012,0Zm-.08.515c.012,0,.027,0,.035,0A.1.1,0,0,1,23.388,15.837Zm-.076-.681c.029,0,.039-.008.027-.012Zm-.272.368c.012,0,.012.01.035,0s.029,0,.057,0A.7.7,0,0,1,23.04,15.523Zm.012.1a.117.117,0,0,1,.047,0s0-.01-.039-.006C23.049,15.621,23.049,15.623,23.051,15.627Zm0,.125.023-.006-.01,0Zm-.194-.566h.016l.01,0A.068.068,0,0,0,22.854,15.186Zm-.016.227.076-.014a.381.381,0,0,1-.049,0l-.027.008Zm-.153-.392.088-.012A.637.637,0,0,0,22.685,15.022Zm-.1.194.029-.006c.023-.006.023-.01.01-.01Zm-.078.055a.115.115,0,0,0,.041-.01l-.012-.006h-.016Zm-.057.341.016,0,.01-.006A.044.044,0,0,1,22.452,15.611Zm-.114-.28.029,0,0,.006,0-.006S22.36,15.327,22.339,15.331Zm-.033-.008h0l.029-.012Zm-.086-.2h0c0,.006.006.008.022.006l0,0,.014,0-.018,0-.022-.006.01,0Zm-.135.164-.016,0c.016,0,.016,0,.016,0Zm.131.249a.122.122,0,0,1-.051,0v0A.13.13,0,0,0,22.215,15.533Zm-.076-.376-.055.01a.125.125,0,0,1,.039,0Zm.221.8.023-.008a.126.126,0,0,0-.037.008Zm.264.258s-.012,0-.024,0q.024,0,.024.012a.048.048,0,0,0-.039.031c.027-.014.041-.025.039-.031l.012-.006C22.65,16.218,22.634,16.214,22.624,16.216Zm.439-.067-.014,0,0,0Zm.452-.067-.024.006-.023,0,.022,0h0Zm.186.09c-.023,0-.037,0-.049,0a.064.064,0,0,0-.035.006C23.645,16.173,23.664,16.173,23.7,16.173Zm.123.025-.008,0,.008.012Zm.666-.327-.023-.01-.027,0c-.012,0-.014,0-.022,0l-.051-.006-.037,0a.534.534,0,0,0-.061,0c-.025,0-.051,0-.078,0L24.1,15.84c-.012,0-.012,0-.023-.008l-.035,0-.027,0-.023,0-.049,0H23.9c-.037,0-.074,0-.112,0l-.047,0a1.791,1.791,0,0,1-.188.01l-.014.006-.035.008c-.023,0-.051,0-.084,0l-.039.008-.072.006a.554.554,0,0,0-.072.012h-.014l-.014,0a.189.189,0,0,0-.045.008l-.184.033-.055.008c-.02,0-.039.008-.059.01-.039.008-.08.016-.119.025a.335.335,0,0,0-.084.025l-.025.008-.074.027-.072.027h0l-.022.008-.023.006c-.023.006-.033.012-.047.014l.035-.008.035-.012.025-.008.059-.016.057-.018a3.13,3.13,0,0,1,.366-.09c.18-.033.349-.061.521-.076.027,0,.051-.006.076-.008s.053,0,.08,0c.049,0,.1,0,.153-.006s.1,0,.153,0H24.1l.041.006.023.006c.012,0,.033,0,.061,0h.027l.022,0a.318.318,0,0,0,.074.006.24.24,0,0,0,.037,0l.012,0,0,0c.014,0,.014,0,.022,0l.041,0Zm.241-.472.016,0,.018,0,.035.008-.035-.008Zm-.061.421v-.008h-.012C24.681,15.817,24.659,15.815,24.671,15.821Zm.01.529h-.01C24.681,16.352,24.681,16.35,24.681,16.35Zm.02-.027c-.027-.006-.053-.014-.08-.022l-.072-.027c.022.01.045.018.072.027a.322.322,0,0,0,.069.018Zm.217.035a.326.326,0,0,1-.061-.01l.012,0,.023.008C24.9,16.361,24.906,16.357,24.918,16.357Zm.208-.593c-.031-.012-.057-.02-.082-.027l-.023-.012-.027,0c-.039-.008-.074-.016-.108-.02a.232.232,0,0,1,.045.01.2.2,0,0,0,.063.01l.051.016A.45.45,0,0,0,25.125,15.764Zm.006-.119,0,0-.016-.008v0Zm.08-.092-.022-.008v0Zm.018-.053c-.051-.02-.092-.027-.135-.043C25.137,15.472,25.178,15.484,25.229,15.5Zm.417.47a.429.429,0,0,1-.055-.016c.012.008.027.006.051.02Zm.161-.282-.025,0s0,0,.01.006S25.791,15.686,25.807,15.688Zm.166.815-.012,0Zm.46-.472.029.022,0,.014c.01,0,.006-.006,0-.014l0-.006v0A.078.078,0,0,0,26.433,16.03Zm-.168.39a.073.073,0,0,1-.049-.014l-.031-.008-.02-.01-.012-.008a.12.12,0,0,0-.045-.022c.02.012.037.02.057.029l.02.01A.136.136,0,0,0,26.265,16.42Zm.19-.161-.006-.01c0-.008.016-.01.012-.024-.02,0-.018.008-.012.024Zm.217-.114a.1.1,0,0,1-.029-.027A.078.078,0,0,0,26.672,16.146Zm.069.466a.066.066,0,0,0-.039-.037C26.723,16.59,26.735,16.6,26.741,16.612Zm-.082.337s0,0-.008-.01l-.008-.008Zm.317.023-.023-.02,0,0,0,0,0,.008Zm.413-.123a.46.46,0,0,0-.041-.031l.016.02Zm-.194.55-.027-.025.016.02Zm.331.016s0,0-.006-.016-.012-.006-.012,0Zm.082.014.025.01c-.012-.008-.023-.018-.025-.01l-.029-.025c.018.02.029.027.031.037Zm.266.067-.008-.024s-.008-.012,0,0Zm-.249.452c-.012-.023-.016-.022-.018-.02l.014.02Zm.157.024,0-.014-.016-.022A.148.148,0,0,1,27.782,17.971Zm.217.38,0-.014-.006,0C28,18.353,28,18.353,28,18.351Zm.163.053-.008-.027s0,.014-.014-.008l.006.012Zm-.031.311s0-.01,0-.022v-.008l-.006-.008.006.016Zm.409-.141-.006-.012c.006.012,0,.014,0,.014Zm-.053.116.012.008-.018-.039-.014-.035.014.035a.071.071,0,0,1,.006.031l-.006.006Zm-.182.19,0-.014-.016-.035C28.294,18.846,28.3,18.868,28.305,18.88Zm.074-.047,0,0C28.38,18.848,28.38,18.835,28.38,18.833ZM28.5,18.8a.492.492,0,0,0-.031-.057.04.04,0,0,0-.016-.022l.016.022Zm.092.047a.332.332,0,0,0-.008-.043l0,.047Zm-.067.184L28.513,19s0,.014,0,0Zm-.053.255-.008-.02,0,.022Z" transform="translate(-16.57 -14.963)" fill="#c84097" fill-rule="evenodd"/>
      <path id="Path_15" data-name="Path 15" d="M22.574,19.182s0,0,.008-.01a.044.044,0,0,0,.006-.027l-.008.012C22.568,19.18,22.572,19.18,22.574,19.182Z" transform="translate(-10.82 -10.955)" fill="#c84097" fill-rule="evenodd"/>
    </g>
    <g id="Group_7" data-name="Group 7" transform="translate(5.042 3.066)">
      <path id="Path_16" data-name="Path 16" d="M24.55,18a1.6,1.6,0,0,0-.29-.854,1.508,1.508,0,0,0-1.165-.593c-.429-.033-.86-.022-1.29-.024-.053,0-.106,0-.161,0a10.623,10.623,0,0,0-1.144.035,1.429,1.429,0,0,0-1.277,1.1,3.71,3.71,0,0,0-.074.832c-.006.435,0,.875,0,1.312a6.419,6.419,0,0,0,.037.8,1.429,1.429,0,0,0,1.091,1.273,3.478,3.478,0,0,0,.83.074c.441.006.879.006,1.32,0a7.056,7.056,0,0,0,.787-.033,1.433,1.433,0,0,0,1.312-1.251,4.571,4.571,0,0,0,.047-.8C24.571,19.245,24.591,18.623,24.55,18Zm-.468,1.59c0,.288,0,.574-.024.862a.963.963,0,0,1-.889.977,4.677,4.677,0,0,1-.64.033c-.448,0-.893,0-1.339,0a4.188,4.188,0,0,1-.7-.041.943.943,0,0,1-.819-.869,5.052,5.052,0,0,1-.031-.644c0-.441-.006-.887,0-1.33a4.246,4.246,0,0,1,.041-.7.951.951,0,0,1,.869-.817c.211-.025.429-.025.642-.031s.443,0,.668,0c.4,0,.8-.008,1.206.023a1.026,1.026,0,0,1,.752.339,1.067,1.067,0,0,1,.239.64C24.091,18.544,24.084,19.067,24.082,19.59Z" transform="translate(-19.145 -16.529)" fill="#c84097" fill-rule="evenodd"/>
      <path id="Path_17" data-name="Path 17" d="M21.433,17.66a.326.326,0,1,1,.323-.331A.323.323,0,0,1,21.433,17.66Z" transform="translate(-17.268 -16.069)" fill="#c84097" fill-rule="evenodd"/>
      <path id="Path_18" data-name="Path 18" d="M21.221,17.2a1.394,1.394,0,1,0,1.388,1.4A1.4,1.4,0,0,0,21.221,17.2Zm-.012,2.3a.9.9,0,1,1,.907-.9A.9.9,0,0,1,21.209,19.5Z" transform="translate(-18.499 -15.883)" fill="#c84097" fill-rule="evenodd"/>
    </g>
  </g>
</svg>
